<svg width="348" height="244" viewBox="0 0 348 244" fill="none" xmlns="http://www.w3.org/2000/svg">
<g clip-path="url(#clip0_196_3)">
<rect width="348" height="244" fill="white"/>
<rect width="310" height="44" transform="translate(0.333572 -1) rotate(0.282181)" fill="#FAFF00"/>
<path d="M16.6856 29.0809L14.7856 29.0715L13.1394 26.2834L11.3143 23.2344L11.2344 23.234L9.3194 26.2646L7.54573 29.0359L5.70575 29.0268L10.3008 21.9294L6.0345 15.0683L7.93448 15.0776L9.54116 17.7856L11.2673 20.6141L11.3473 20.6145L13.0811 17.803L14.7744 15.1113L16.6144 15.1204L12.2608 21.919L16.6856 29.0809ZM33.3004 22.9427C33.3052 21.9693 33.4165 21.0365 33.6342 20.1443C33.8653 19.2387 34.1695 18.4002 34.5466 17.6287C34.9371 16.8573 35.3872 16.1662 35.8968 15.5554C36.4066 14.9312 36.9425 14.4072 37.5046 13.9833L39.1246 13.9912C38.5358 14.4283 37.9799 14.9389 37.457 15.523C36.9475 16.0939 36.4911 16.725 36.0877 17.4163C35.6977 18.0944 35.3874 18.8329 35.1568 19.6318C34.9262 20.4173 34.8088 21.2367 34.8046 22.0901L34.7962 23.81C34.792 24.6634 34.9012 25.4906 35.124 26.2917C35.3467 27.0795 35.6498 27.821 36.033 28.5162C36.4297 29.1981 36.8799 29.827 37.3837 30.4029C37.9008 30.9921 38.4516 31.5081 39.0361 31.951L37.4162 31.943C36.8582 31.5269 36.3274 31.0043 35.8239 30.3752C35.3203 29.746 34.8771 29.0438 34.4942 28.2686C34.1247 27.4934 33.8288 26.6586 33.6065 25.7642C33.3977 24.8565 33.2956 23.916 33.3004 22.9427ZM47.6206 29.4733C45.914 29.4649 44.6437 28.8386 43.8098 27.5945C42.9893 26.3504 42.5848 24.5617 42.5962 22.2284C42.6077 19.8951 43.0299 18.1105 43.8626 16.8746C44.7087 15.6388 45.9851 15.025 47.6917 15.0334C48.3317 15.0366 48.8846 15.126 49.3504 15.3016C49.8162 15.4772 50.2151 15.7125 50.547 16.0075C50.8789 16.3025 51.1572 16.6372 51.382 17.0116C51.6069 17.3727 51.8051 17.7404 51.9766 18.1146L50.5334 18.7675C50.4149 18.4602 50.2763 18.1729 50.1176 17.9054C49.959 17.6246 49.7669 17.3837 49.5412 17.1826C49.3289 16.9682 49.0697 16.8002 48.7637 16.6787C48.4709 16.5573 48.1112 16.4955 47.6846 16.4934C46.5779 16.488 45.7492 16.9039 45.1984 17.7412C44.6609 18.5786 44.3887 19.6972 44.3818 21.0972L44.3706 23.3772C44.3637 24.7772 44.6249 25.8985 45.1541 26.7411C45.6966 27.5838 46.5212 28.0078 47.6278 28.0133C48.0545 28.0154 48.4148 27.9572 48.7087 27.8386C49.0159 27.7201 49.2767 27.5614 49.491 27.3624C49.7188 27.1502 49.9133 26.9112 50.0746 26.6453C50.236 26.3661 50.3774 26.0735 50.4989 25.7674L51.9356 26.4345C51.7604 26.8203 51.5586 27.1926 51.3301 27.5515C51.1017 27.9104 50.8201 28.2357 50.4853 28.5274C50.1505 28.819 49.7494 29.0504 49.2819 29.2214C48.8144 29.3925 48.2606 29.4764 47.6206 29.4733ZM59.1527 29.5301C58.4327 29.5265 57.78 29.3966 57.1946 29.1404C56.6225 28.8843 56.1309 28.5218 55.7199 28.0531C55.3223 27.5712 55.0184 27.003 54.8083 26.3486C54.5982 25.6809 54.4953 24.9337 54.4993 24.1071C54.5033 23.2938 54.6136 22.5543 54.8303 21.8887C55.0469 21.2231 55.3563 20.6579 55.7586 20.1932C56.1743 19.7153 56.6694 19.351 57.244 19.1005C57.8319 18.8501 58.4859 18.7266 59.2059 18.7302C59.9259 18.7337 60.5719 18.8636 61.144 19.1197C61.7294 19.376 62.2209 19.745 62.6185 20.227C63.0296 20.6957 63.3401 21.2639 63.5501 21.9316C63.7602 22.5993 63.8632 23.3398 63.8592 24.1532C63.8551 24.9798 63.7448 25.726 63.5282 26.3916C63.3116 27.0438 62.9955 27.609 62.5798 28.0869C62.1775 28.5516 61.6824 28.9092 61.0945 29.1596C60.5199 29.4101 59.8727 29.5336 59.1527 29.5301ZM59.1595 28.1501C60.0528 28.1545 60.7741 27.8914 61.3234 27.3607C61.8727 26.8301 62.1501 26.0048 62.1556 24.8848L62.1629 23.4048C62.1684 22.2848 61.8991 21.4568 61.3551 20.9208C60.8111 20.3848 60.0924 20.1146 59.1991 20.1102C58.3057 20.1058 57.5844 20.3689 57.0352 20.8995C56.4859 21.4302 56.2085 22.2555 56.2029 23.3755L56.1957 24.8554C56.1901 25.9754 56.4594 26.8034 57.0034 27.3394C57.5475 27.8755 58.2661 28.1457 59.1595 28.1501ZM67.1059 29.3292L67.1568 19.0093L68.7568 19.0172L68.7485 20.6972L68.8285 20.6976C68.9364 20.4448 69.0709 20.2055 69.232 19.9796C69.3932 19.7404 69.5875 19.5347 69.8151 19.3624C70.0559 19.1903 70.3366 19.0517 70.6571 18.9466C70.9776 18.8415 71.3512 18.79 71.7779 18.7921C72.8579 18.7974 73.7228 19.1484 74.3727 19.8449C75.0227 20.5281 75.3446 21.4964 75.3384 22.7497L75.3058 29.3696L73.7059 29.3617L73.7371 23.0218C73.7418 22.0752 73.5385 21.3741 73.1274 20.9188C72.7164 20.4501 72.1109 20.2138 71.3109 20.2098C70.9909 20.2082 70.6774 20.2467 70.3703 20.3252C70.0633 20.4037 69.7894 20.5223 69.5486 20.6811C69.3078 20.84 69.1134 21.0457 68.9655 21.2983C68.8176 21.5509 68.7428 21.8439 68.7412 22.1772L68.7059 29.3371L67.1059 29.3292ZM83.6379 29.4106C82.8513 29.4068 82.2724 29.1839 81.9012 28.7421C81.5434 28.3003 81.3662 27.7328 81.3696 27.0394L81.4021 20.4395L77.9621 20.4226L77.9688 19.0626L80.5288 19.0752C80.8755 19.0769 81.1158 19.0114 81.2498 18.8788C81.3972 18.7328 81.4717 18.4865 81.4734 18.1398L81.4867 15.4399L83.0267 15.4475L83.0088 19.0874L87.7087 19.1106L87.702 20.4706L83.0021 20.4474L82.9646 28.0473L87.6646 28.0705L87.6579 29.4304L83.6379 29.4106ZM95.832 16.8705C95.3654 16.8682 95.0392 16.7733 94.8534 16.5857C94.6677 16.3848 94.5756 16.1377 94.5771 15.8444L94.5786 15.5244C94.5801 15.231 94.6746 14.9915 94.8622 14.8057C95.0498 14.6067 95.377 14.5083 95.8436 14.5106C96.3103 14.5129 96.6365 14.6145 96.8222 14.8154C97.0079 15.003 97.1001 15.2434 97.0986 15.5368L97.097 15.8568C97.0956 16.1501 97.001 16.3963 96.8134 16.5954C96.6258 16.7811 96.2987 16.8728 95.832 16.8705ZM91.2567 28.0882L94.9767 28.1065L95.0141 20.5066L91.2942 20.4882L91.3009 19.1283L96.6208 19.1545L96.5767 28.1144L100.057 28.1315L100.05 29.4915L91.25 29.4481L91.2567 28.0882ZM103.082 29.5064L103.133 19.1865L104.733 19.1944L104.725 20.8744L104.805 20.8748C104.913 20.622 105.047 20.3826 105.208 20.1568C105.369 19.9176 105.564 19.7118 105.791 19.5396C106.032 19.3675 106.313 19.2289 106.633 19.1238C106.954 19.0187 107.327 18.9672 107.754 18.9693C108.834 18.9746 109.699 19.3255 110.349 20.0221C110.999 20.7053 111.321 21.6736 111.315 22.9269L111.282 29.5468L109.682 29.5389L109.713 23.199C109.718 22.2523 109.515 21.5513 109.104 21.096C108.693 20.6273 108.087 20.3909 107.287 20.387C106.967 20.3854 106.654 20.4239 106.346 20.5024C106.039 20.5809 105.765 20.6995 105.525 20.8583C105.284 21.0171 105.09 21.2229 104.942 21.4755C104.794 21.7281 104.719 22.021 104.717 22.3544L104.682 29.5143L103.082 29.5064ZM121.562 27.9174L121.482 27.917C121.374 28.1698 121.24 28.4158 121.079 28.655C120.918 28.8809 120.717 29.0799 120.476 29.2521C120.248 29.4243 119.974 29.5629 119.654 29.668C119.333 29.7731 118.96 29.8246 118.533 29.8225C117.453 29.8172 116.588 29.4729 115.938 28.7897C115.288 28.0932 114.966 27.1182 114.972 25.8649L115.005 19.245L116.605 19.2529L116.574 25.5928C116.569 26.5395 116.772 27.2471 117.183 27.7158C117.594 28.1712 118.2 28.4008 119 28.4048C119.32 28.4064 119.633 28.3679 119.94 28.2894C120.248 28.2109 120.521 28.0923 120.762 27.9335C121.003 27.7746 121.197 27.5756 121.345 27.3363C121.493 27.0837 121.568 26.7841 121.57 26.4374L121.605 19.2775L123.205 19.2854L123.154 29.6053L121.554 29.5974L121.562 27.9174ZM131.105 29.8844C130.385 29.8809 129.732 29.751 129.147 29.4948C128.575 29.2386 128.083 28.8762 127.672 28.4075C127.275 27.9255 126.971 27.3574 126.761 26.703C126.55 26.0353 126.448 25.2881 126.452 24.4614C126.456 23.6481 126.566 22.9087 126.783 22.243C126.999 21.5774 127.309 21.0123 127.711 20.5476C128.127 20.0696 128.622 19.7054 129.196 19.4549C129.784 19.2045 130.438 19.081 131.158 19.0846C131.878 19.0881 132.524 19.218 133.096 19.4741C133.682 19.7303 134.173 20.0994 134.571 20.5814C134.982 21.0501 135.292 21.6183 135.502 22.286C135.712 22.9537 135.815 23.6942 135.811 24.5075C135.807 25.3342 135.697 26.0803 135.48 26.7459C135.264 27.3982 134.948 27.9633 134.532 28.4413C134.13 28.906 133.635 29.2635 133.047 29.514C132.472 29.7645 131.825 29.888 131.105 29.8844ZM131.112 28.5044C132.005 28.5088 132.726 28.2457 133.276 27.7151C133.825 27.1845 134.102 26.3591 134.108 25.2392L134.115 23.7592C134.121 22.6392 133.851 21.8112 133.307 21.2752C132.763 20.7391 132.045 20.4689 131.151 20.4645C130.258 20.4601 129.537 20.7233 128.987 21.2539C128.438 21.7845 128.161 22.6098 128.155 23.7298L128.148 25.2098C128.142 26.3298 128.412 27.1578 128.956 27.6938C129.5 28.2298 130.218 28.5 131.112 28.5044ZM145.546 28.0355L145.466 28.0351C145.358 28.2879 145.224 28.5339 145.063 28.7732C144.902 28.999 144.701 29.198 144.46 29.3702C144.232 29.5424 143.958 29.6811 143.638 29.7861C143.317 29.8912 142.944 29.9427 142.517 29.9406C141.437 29.9353 140.572 29.591 139.922 28.9078C139.272 28.2113 138.95 27.2364 138.956 25.983L138.989 19.3631L140.589 19.371L140.558 25.7109C140.553 26.6576 140.756 27.3653 141.167 27.834C141.578 28.2893 142.184 28.519 142.984 28.5229C143.304 28.5245 143.617 28.486 143.925 28.4075C144.232 28.3291 144.506 28.2104 144.746 28.0516C144.987 27.8928 145.181 27.6937 145.329 27.4544C145.477 27.2018 145.552 26.9022 145.554 26.5555L145.589 19.3956L147.189 19.4035L147.138 29.7234L145.538 29.7155L145.546 28.0355ZM155.209 30.0031C154.129 29.9978 153.197 29.8132 152.412 29.4494C151.64 29.0722 150.983 28.5756 150.439 27.9596L151.524 27.025C152.014 27.5474 152.552 27.95 153.138 28.2329C153.723 28.5158 154.429 28.6593 155.256 28.6634C156.056 28.6673 156.71 28.5305 157.218 28.253C157.739 27.9622 158.001 27.5102 158.004 26.8969C158.006 26.6302 157.953 26.4099 157.848 26.2361C157.755 26.049 157.623 25.9016 157.45 25.7941C157.277 25.6866 157.084 25.6057 156.871 25.5513C156.658 25.4836 156.432 25.4291 156.192 25.3879L154.573 25.1399C154.213 25.0848 153.82 25.0096 153.394 24.9141C152.981 24.8188 152.602 24.6702 152.256 24.4685C151.911 24.2535 151.619 23.972 151.38 23.6242C151.155 23.2764 151.044 22.8225 151.047 22.2625C151.05 21.7426 151.152 21.2964 151.354 20.924C151.569 20.5384 151.864 20.2199 152.238 19.9684C152.613 19.7036 153.054 19.5124 153.561 19.3949C154.069 19.2641 154.622 19.2001 155.222 19.2031C156.156 19.2077 156.961 19.3583 157.64 19.655C158.332 19.9517 158.923 20.3613 159.414 20.8837L158.369 21.8586C158.25 21.7113 158.097 21.5639 157.911 21.4163C157.739 21.2555 157.519 21.1144 157.253 20.9931C157.001 20.8585 156.701 20.7504 156.355 20.6687C156.009 20.587 155.609 20.545 155.156 20.5428C154.342 20.5388 153.715 20.6757 153.274 20.9535C152.846 21.2314 152.63 21.637 152.628 22.1703C152.626 22.437 152.672 22.6639 152.764 22.851C152.87 23.0249 153.009 23.1656 153.182 23.2731C153.355 23.3806 153.548 23.4682 153.761 23.5359C153.987 23.5904 154.214 23.6382 154.44 23.6793L156.059 23.9272C156.432 23.9824 156.825 24.0577 157.238 24.1531C157.651 24.2484 158.03 24.4036 158.376 24.6187C158.721 24.8204 159.007 25.0951 159.232 25.4429C159.47 25.7907 159.588 26.2447 159.585 26.8047C159.58 27.8313 159.176 28.6227 158.373 29.1787C157.584 29.7348 156.529 30.0096 155.209 30.0031ZM169.013 23.611C169.008 24.5844 168.89 25.5238 168.659 26.4293C168.441 27.3216 168.137 28.1535 167.747 28.9249C167.37 29.6964 166.926 30.3942 166.416 31.0183C165.907 31.6425 165.371 32.1599 164.809 32.5704L163.189 32.5625C163.764 32.1253 164.313 31.6147 164.836 31.0306C165.359 30.4598 165.815 29.8354 166.205 29.1573C166.609 28.4659 166.926 27.7275 167.156 26.9419C167.387 26.1431 167.504 25.317 167.509 24.4636L167.517 22.7437C167.521 21.8903 167.412 21.0698 167.189 20.282C166.966 19.4809 166.657 18.7394 166.26 18.0574C165.877 17.3622 165.427 16.7266 164.91 16.1507C164.392 15.5615 163.848 15.0455 163.277 14.6027L164.897 14.6107C165.455 15.0401 165.986 15.5694 166.489 16.1985C166.993 16.8143 167.43 17.5098 167.799 18.285C168.182 19.0602 168.478 19.9017 168.687 20.8094C168.909 21.7038 169.018 22.6377 169.013 23.611ZM179.073 30.0607C178.527 30.058 178.141 29.9427 177.915 29.715C177.703 29.4872 177.598 29.2001 177.599 28.8534L177.601 28.4934C177.603 28.1467 177.711 27.8606 177.925 27.635C178.153 27.4094 178.54 27.298 179.087 27.3007C179.634 27.3034 180.013 27.4186 180.225 27.6463C180.451 27.8741 180.563 28.1613 180.561 28.508L180.559 28.868C180.558 29.2146 180.443 29.5007 180.215 29.7263C180.001 29.9519 179.62 30.0634 179.073 30.0607ZM179.112 22.1408C178.566 22.1381 178.18 22.0228 177.954 21.7951C177.742 21.5673 177.637 21.2802 177.638 20.9335L177.64 20.5735C177.642 20.2268 177.75 19.9407 177.964 19.7151C178.192 19.4895 178.579 19.3781 179.126 19.3808C179.673 19.3835 180.052 19.4987 180.264 19.7264C180.49 19.9542 180.602 20.2414 180.6 20.5881L180.598 20.9481C180.597 21.2947 180.482 21.5808 180.254 21.8064C180.04 22.032 179.659 22.1435 179.112 22.1408ZM199.458 29.9811L199.527 16.0212L201.207 16.0295L201.146 28.5294L207.765 28.562L207.758 30.0219L199.458 29.9811ZM215.049 30.2979C214.329 30.2943 213.677 30.1644 213.091 29.9082C212.519 29.6521 212.027 29.2896 211.616 28.8209C211.219 28.339 210.915 27.7708 210.705 27.1164C210.495 26.4487 210.392 25.7015 210.396 24.8749C210.4 24.0615 210.51 23.3221 210.727 22.6565C210.943 21.9909 211.253 21.4257 211.655 20.961C212.071 20.4831 212.566 20.1188 213.141 19.8683C213.728 19.6179 214.382 19.4944 215.102 19.498C215.822 19.5015 216.468 19.6314 217.041 19.8875C217.626 20.1438 218.117 20.5128 218.515 20.9948C218.926 21.4635 219.237 22.0317 219.447 22.6994C219.657 23.3671 219.76 24.1076 219.756 24.921C219.752 25.7476 219.641 26.4938 219.425 27.1594C219.208 27.8116 218.892 28.3768 218.476 28.8547C218.074 29.3194 217.579 29.677 216.991 29.9274C216.416 30.1779 215.769 30.3014 215.049 30.2979ZM215.056 28.9179C215.949 28.9223 216.671 28.6592 217.22 28.1285C217.769 27.5979 218.047 26.7726 218.052 25.6526L218.059 24.1726C218.065 23.0526 217.796 22.2246 217.252 21.6886C216.708 21.1526 215.989 20.8824 215.096 20.878C214.202 20.8736 213.481 21.1367 212.932 21.6673C212.382 22.198 212.105 23.0233 212.099 24.1433L212.092 25.6232C212.087 26.7432 212.356 27.5712 212.9 28.1072C213.444 28.6433 214.163 28.9135 215.056 28.9179ZM223.002 30.097L223.053 19.7771L224.653 19.785L224.645 21.465L224.725 21.4654C224.833 21.2126 224.967 20.9733 225.129 20.7474C225.29 20.5082 225.484 20.3025 225.712 20.1302C225.952 19.9581 226.233 19.8195 226.554 19.7144C226.874 19.6093 227.248 19.5578 227.674 19.5599C228.754 19.5652 229.619 19.9162 230.269 20.6127C230.919 21.2959 231.241 22.2642 231.235 23.5175L231.202 30.1374L229.602 30.1295L229.634 23.7896C229.638 22.8429 229.435 22.1419 229.024 21.6866C228.613 21.2179 228.007 20.9816 227.207 20.9776C226.887 20.976 226.574 21.0145 226.267 21.093C225.96 21.1715 225.686 21.2901 225.445 21.4489C225.204 21.6078 225.01 21.8135 224.862 22.0661C224.714 22.3187 224.639 22.6117 224.638 22.945L224.602 30.1049L223.002 30.097ZM244.249 31.3817C244.243 32.4217 243.806 33.1862 242.937 33.6752C242.068 34.1776 240.767 34.4246 239.034 34.416C237.367 34.4078 236.168 34.1819 235.437 33.7383C234.719 33.2948 234.362 32.6597 234.366 31.833C234.369 31.273 234.518 30.8404 234.813 30.5352C235.107 30.23 235.522 30.0053 236.056 29.8613L236.057 29.6213C235.765 29.4732 235.539 29.2854 235.38 29.058C235.221 28.8305 235.142 28.5435 235.144 28.1968C235.147 27.6635 235.322 27.2643 235.67 26.9994C236.031 26.7345 236.479 26.5367 237.013 26.406L237.013 26.326C236.375 26.0428 235.877 25.627 235.52 25.0786C235.176 24.5302 235.005 23.8894 235.009 23.1561C235.012 22.6361 235.107 22.1565 235.296 21.7175C235.485 21.2784 235.753 20.9064 236.102 20.6014C236.463 20.2832 236.891 20.0386 237.385 19.8677C237.879 19.6968 238.426 19.6129 239.026 19.6158C239.8 19.6196 240.479 19.763 241.064 20.0459L241.065 19.8659C241.067 19.4659 241.162 19.133 241.35 18.8672C241.538 18.6015 241.859 18.4697 242.312 18.472L244.212 18.4813L244.205 19.8813L241.885 19.8699L241.882 20.5699C242.254 20.8917 242.538 21.2731 242.736 21.7141C242.934 22.1551 243.032 22.6489 243.029 23.1956C243.026 23.7156 242.924 24.1951 242.722 24.6341C242.533 25.0731 242.264 25.4518 241.916 25.7701C241.568 26.0751 241.14 26.313 240.633 26.4838C240.139 26.6547 239.591 26.7387 238.991 26.7357C238.818 26.7349 238.651 26.7274 238.492 26.7133C238.332 26.6991 238.172 26.6784 238.012 26.6509C237.852 26.6768 237.685 26.7226 237.511 26.7884C237.338 26.8409 237.177 26.9201 237.03 27.0261C236.883 27.1187 236.762 27.2314 236.668 27.3643C236.574 27.4972 236.527 27.6503 236.526 27.8236C236.525 28.1303 236.677 28.3377 236.983 28.4459C237.289 28.5407 237.689 28.5893 238.182 28.5918L240.462 28.603C241.796 28.6096 242.761 28.8676 243.358 29.3773C243.956 29.8735 244.253 30.5417 244.249 31.3817ZM242.748 31.4543C242.75 31.041 242.585 30.7068 242.253 30.4518C241.921 30.2102 241.342 30.0873 240.515 30.0833L236.935 30.0656C236.24 30.3422 235.891 30.8072 235.888 31.4605C235.886 31.9138 236.064 32.3014 236.422 32.6231C236.781 32.9582 237.38 33.1279 238.22 33.132L239.78 33.1397C240.713 33.1443 241.441 33.0012 241.962 32.7104C242.483 32.433 242.745 32.0143 242.748 31.4543ZM238.998 25.4957C239.798 25.4997 240.385 25.3159 240.76 24.9444C241.149 24.573 241.345 24.0806 241.348 23.4673L241.35 22.8873C241.353 22.274 241.162 21.7864 240.778 21.4245C240.406 21.0493 239.82 20.8597 239.02 20.8558C238.22 20.8519 237.633 21.0356 237.258 21.4071C236.883 21.7653 236.693 22.251 236.69 22.8643L236.688 23.4443C236.685 24.0577 236.869 24.5519 237.24 24.9271C237.612 25.3022 238.198 25.4918 238.998 25.4957ZM251.729 17.6383C251.262 17.636 250.936 17.5411 250.75 17.3535C250.564 17.1526 250.472 16.9055 250.474 16.6122L250.475 16.2922C250.477 15.9988 250.571 15.7593 250.759 15.5735C250.946 15.3745 251.274 15.2761 251.74 15.2784C252.207 15.2807 252.533 15.3823 252.719 15.5832C252.904 15.7708 252.997 16.0112 252.995 16.3046L252.994 16.6246C252.992 16.9179 252.898 17.1641 252.71 17.3632C252.522 17.5489 252.195 17.6406 251.729 17.6383ZM247.153 28.8559L250.873 28.8743L250.911 21.2744L247.191 21.256L247.197 19.8961L252.517 19.9223L252.473 28.8821L255.953 28.8993L255.946 30.2593L247.147 30.2159L247.153 28.8559ZM263.519 30.2966C262.732 30.2927 262.153 30.0698 261.782 29.628C261.424 29.1862 261.247 28.6187 261.25 27.9254L261.283 21.3254L257.843 21.3085L257.849 19.9485L260.409 19.9611C260.756 19.9628 260.996 19.8973 261.13 19.7647C261.278 19.6187 261.352 19.3724 261.354 19.0258L261.367 16.3258L262.907 16.3334L262.889 19.9733L267.589 19.9965L267.583 21.3565L262.883 21.3333L262.845 28.9332L267.545 28.9564L267.539 30.3164L263.519 30.2966ZM277.459 28.6852L277.379 28.6848C277.271 28.9376 277.136 29.1836 276.975 29.4228C276.814 29.6487 276.613 29.8477 276.372 30.0199C276.145 30.1921 275.871 30.3307 275.55 30.4358C275.23 30.5409 274.856 30.5924 274.429 30.5903C273.349 30.585 272.484 30.2407 271.834 29.5575C271.185 28.861 270.863 27.886 270.869 26.6327L270.901 20.0128L272.501 20.0207L272.47 26.3606C272.466 27.3073 272.669 28.0149 273.08 28.4836C273.491 28.939 274.096 29.1686 274.896 29.1726C275.216 29.1742 275.53 29.1357 275.837 29.0572C276.144 28.9787 276.418 28.8601 276.659 28.7013C276.9 28.5424 277.094 28.3434 277.242 28.1041C277.39 27.8515 277.464 27.5519 277.466 27.2052L277.501 20.0453L279.101 20.0532L279.051 30.3731L277.451 30.3652L277.459 28.6852ZM289.511 28.7446L289.431 28.7442C288.758 30.0209 287.695 30.6556 286.241 30.6485C284.975 30.6422 283.984 30.164 283.269 29.2138C282.567 28.2637 282.22 26.9353 282.228 25.2286C282.237 23.522 282.596 22.1971 283.308 21.2539C284.032 20.3108 285.028 19.8424 286.295 19.8486C287.748 19.8558 288.805 20.501 289.465 21.7842L289.545 21.7846L289.576 15.6247L291.175 15.6326L291.103 30.4324L289.503 30.4245L289.511 28.7446ZM286.868 29.2315C287.228 29.2333 287.569 29.1883 287.889 29.0966C288.21 29.0048 288.49 28.8729 288.731 28.7007C288.972 28.5152 289.16 28.2962 289.294 28.0435C289.442 27.7775 289.517 27.4712 289.519 27.1246L289.537 23.4046C289.539 23.058 289.467 22.7576 289.322 22.5035C289.19 22.2362 289.004 22.0153 288.765 21.8408C288.526 21.653 288.246 21.5116 287.927 21.4167C287.607 21.3218 287.268 21.2734 286.908 21.2716C285.974 21.267 285.246 21.5501 284.723 22.1209C284.214 22.6784 283.957 23.4238 283.952 24.3571L283.944 26.1171C283.939 27.0504 284.189 27.805 284.693 28.3808C285.21 28.9434 285.935 29.227 286.868 29.2315ZM299.174 30.7122C298.427 30.7085 297.754 30.5785 297.155 30.3222C296.57 30.066 296.065 29.7035 295.641 29.2348C295.23 28.7527 294.913 28.1845 294.689 27.53C294.466 26.8623 294.356 26.1217 294.36 25.3084C294.364 24.4817 294.481 23.7356 294.711 23.0701C294.954 22.4046 295.284 21.8396 295.699 21.3749C296.115 20.897 296.61 20.5328 297.185 20.2822C297.773 20.0318 298.42 19.9083 299.127 19.9118C299.82 19.9152 300.446 20.045 301.005 20.3011C301.577 20.5572 302.062 20.9129 302.46 21.3682C302.857 21.8102 303.161 22.3384 303.372 22.9528C303.582 23.5671 303.685 24.241 303.682 24.9743L303.678 25.7343L296.038 25.6967L296.036 26.1767C296.034 26.63 296.105 27.0503 296.25 27.4377C296.394 27.8251 296.599 28.1595 296.865 28.4408C297.143 28.7221 297.476 28.9438 297.861 29.1057C298.261 29.2543 298.7 29.3298 299.18 29.3322C299.874 29.3356 300.474 29.1786 300.983 28.8611C301.491 28.5436 301.88 28.1055 302.149 27.5468L303.325 28.3526C303.015 29.0444 302.499 29.6152 301.777 30.065C301.068 30.5015 300.2 30.7172 299.174 30.7122ZM299.12 21.2318C298.68 21.2296 298.273 21.3076 297.899 21.4658C297.525 21.6239 297.197 21.8423 296.916 22.1209C296.648 22.3996 296.433 22.7319 296.271 23.1178C296.122 23.4904 296.047 23.9034 296.045 24.3567L296.044 24.4967L301.964 24.5258L301.965 24.3058C301.967 23.8525 301.896 23.4388 301.751 23.0648C301.62 22.6908 301.428 22.3698 301.176 22.1019C300.937 21.8207 300.638 21.6059 300.279 21.4575C299.933 21.3091 299.547 21.2339 299.12 21.2318Z" fill="black"/>
<rect width="298" height="44" transform="translate(0.216705 56) rotate(0.282181)" fill="#FAFF00"/>
<path d="M10.2288 86.0497L10.2558 80.5697L5.47764 72.0661L7.39762 72.0756L9.37967 75.7254L11.064 78.9137L11.144 78.9141L12.8996 75.7427L14.9175 72.1126L16.7975 72.1219L11.9358 80.578L11.9088 86.058L10.2288 86.0497ZM33.1836 79.9427C33.1884 78.9693 33.2996 78.0365 33.5173 77.1443C33.7485 76.2387 34.0526 75.4002 34.4297 74.6287C34.8202 73.8573 35.2703 73.1662 35.78 72.5554C36.2897 71.9312 36.8256 71.4072 37.3877 70.9833L39.0077 70.9912C38.4189 71.4283 37.863 71.9389 37.3402 72.523C36.8307 73.0939 36.3742 73.725 35.9708 74.4163C35.5808 75.0944 35.2705 75.8329 35.0399 76.6318C34.8094 77.4173 34.692 78.2367 34.6878 79.0901L34.6793 80.81C34.6751 81.6634 34.7844 82.4906 35.0071 83.2917C35.2299 84.0795 35.5329 84.821 35.9161 85.5162C36.3128 86.1981 36.763 86.827 37.2669 87.4029C37.784 87.9921 38.3348 88.5081 38.9193 88.951L37.2993 88.943C36.7413 88.5269 36.2106 88.0043 35.707 87.3752C35.2034 86.746 34.7602 86.0438 34.3773 85.2686C34.0078 84.4934 33.7119 83.6586 33.4897 82.7642C33.2808 81.8565 33.1788 80.916 33.1836 79.9427ZM47.5038 86.4733C45.7971 86.4649 44.5268 85.8386 43.693 84.5945C42.8724 83.3504 42.4679 81.5617 42.4794 79.2284C42.4909 76.8951 42.913 75.1105 43.7458 73.8746C44.5919 72.6388 45.8682 72.025 47.5749 72.0334C48.2149 72.0366 48.7678 72.126 49.2336 72.3016C49.6994 72.4772 50.0982 72.7125 50.4301 73.0075C50.762 73.3025 51.0404 73.6372 51.2652 74.0116C51.4901 74.3727 51.6883 74.7404 51.8598 75.1146L50.4165 75.7675C50.298 75.4602 50.1594 75.1729 50.0008 74.9054C49.8421 74.6246 49.65 74.3837 49.4243 74.1826C49.212 73.9682 48.9529 73.8002 48.6468 73.6787C48.354 73.5573 47.9943 73.4955 47.5677 73.4934C46.461 73.488 45.6323 73.9039 45.0815 74.7412C44.544 75.5786 44.2719 76.6972 44.265 78.0972L44.2537 80.3772C44.2468 81.7772 44.508 82.8985 45.0372 83.7411C45.5797 84.5838 46.4043 85.0078 47.5109 85.0133C47.9376 85.0154 48.2979 84.9572 48.5918 84.8386C48.8991 84.7201 49.1599 84.5614 49.3742 84.3624C49.6019 84.1502 49.7964 83.9112 49.9577 83.6453C50.1191 83.3661 50.2605 83.0735 50.382 82.7674L51.8188 83.4345C51.6435 83.8203 51.4417 84.1926 51.2133 84.5515C50.9848 84.9104 50.7032 85.2357 50.3685 85.5274C50.0337 85.819 49.6325 86.0504 49.165 86.2214C48.6975 86.3925 48.1438 86.4764 47.5038 86.4733ZM59.0358 86.5301C58.3158 86.5265 57.6631 86.3966 57.0777 86.1404C56.5056 85.8843 56.0141 85.5218 55.603 85.0531C55.2054 84.5712 54.9015 84.003 54.6914 83.3486C54.4814 82.6809 54.3784 81.9337 54.3825 81.1071C54.3865 80.2938 54.4968 79.5543 54.7134 78.8887C54.93 78.2231 55.2395 77.6579 55.6417 77.1932C56.0574 76.7153 56.5526 76.351 57.1271 76.1005C57.7151 75.8501 58.369 75.7266 59.089 75.7302C59.809 75.7337 60.455 75.8636 61.0271 76.1197C61.6125 76.376 62.104 76.745 62.5017 77.227C62.9127 77.6957 63.2232 78.2639 63.4333 78.9316C63.6433 79.5993 63.7463 80.3398 63.7423 81.1532C63.7383 81.9798 63.6279 82.726 63.4113 83.3916C63.1948 84.0438 62.8786 84.609 62.463 85.0869C62.0607 85.5516 61.5656 85.9092 60.9777 86.1596C60.4031 86.4101 59.7558 86.5336 59.0358 86.5301ZM59.0426 85.1501C59.9359 85.1545 60.6572 84.8914 61.2065 84.3607C61.7558 83.8301 62.0332 83.0048 62.0387 81.8848L62.046 80.4048C62.0515 79.2848 61.7823 78.4568 61.2382 77.9208C60.6942 77.3848 59.9755 77.1146 59.0822 77.1102C58.1889 77.1058 57.4676 77.3689 56.9183 77.8995C56.369 78.4302 56.0916 79.2555 56.0861 80.3755L56.0788 81.8554C56.0733 82.9754 56.3425 83.8034 56.8866 84.3394C57.4306 84.8755 58.1493 85.1457 59.0426 85.1501ZM66.9891 86.3292L67.0399 76.0093L68.6399 76.0172L68.6316 77.6972L68.7116 77.6976C68.8195 77.4448 68.954 77.2055 69.1152 76.9796C69.2763 76.7404 69.4707 76.5347 69.6982 76.3624C69.939 76.1903 70.2197 76.0517 70.5403 75.9466C70.8608 75.8415 71.2344 75.79 71.661 75.7921C72.741 75.7974 73.606 76.1484 74.2559 76.8449C74.9059 77.5281 75.2278 78.4964 75.2216 79.7497L75.189 86.3696L73.589 86.3617L73.6202 80.0218C73.6249 79.0752 73.4217 78.3741 73.0106 77.9188C72.5995 77.4501 71.994 77.2138 71.194 77.2098C70.874 77.2082 70.5605 77.2467 70.2535 77.3252C69.9464 77.4037 69.6725 77.5223 69.4317 77.6811C69.1909 77.84 68.9966 78.0457 68.8487 78.2983C68.7007 78.5509 68.626 78.8439 68.6243 79.1772L68.5891 86.3371L66.9891 86.3292ZM83.5211 86.4106C82.7344 86.4068 82.1555 86.1839 81.7843 85.7421C81.4265 85.3003 81.2493 84.7328 81.2527 84.0394L81.2852 77.4395L77.8453 77.4226L77.852 76.0626L80.4119 76.0752C80.7586 76.0769 80.9989 76.0114 81.1329 75.8788C81.2803 75.7328 81.3548 75.4865 81.3565 75.1398L81.3698 72.4399L82.9098 72.4475L82.8919 76.0874L87.5918 76.1106L87.5851 77.4706L82.8852 77.4474L82.8478 85.0473L87.5477 85.0705L87.541 86.4304L83.5211 86.4106ZM95.7152 73.8705C95.2485 73.8682 94.9223 73.7733 94.7366 73.5857C94.5509 73.3848 94.4588 73.1377 94.4602 72.8444L94.4618 72.5244C94.4632 72.231 94.5577 71.9915 94.7453 71.8057C94.933 71.6067 95.2601 71.5083 95.7268 71.5106C96.1934 71.5129 96.5196 71.6145 96.7053 71.8154C96.891 72.003 96.9832 72.2434 96.9817 72.5368L96.9802 72.8568C96.9787 73.1501 96.8842 73.3963 96.6965 73.5954C96.5089 73.7811 96.1818 73.8728 95.7152 73.8705ZM91.1399 85.0882L94.8598 85.1065L94.8972 77.5066L91.1773 77.4882L91.184 76.1283L96.5039 76.1545L96.4598 85.1144L99.9398 85.1315L99.9331 86.4915L91.1332 86.4481L91.1399 85.0882ZM102.965 86.5064L103.016 76.1865L104.616 76.1944L104.608 77.8744L104.688 77.8748C104.796 77.622 104.93 77.3826 105.091 77.1568C105.252 76.9176 105.447 76.7118 105.674 76.5396C105.915 76.3675 106.196 76.2289 106.516 76.1238C106.837 76.0187 107.21 75.9672 107.637 75.9693C108.717 75.9746 109.582 76.3255 110.232 77.0221C110.882 77.7053 111.204 78.6736 111.198 79.9269L111.165 86.5468L109.565 86.5389L109.596 80.199C109.601 79.2523 109.398 78.5513 108.987 78.096C108.576 77.6273 107.97 77.3909 107.17 77.387C106.85 77.3854 106.537 77.4239 106.23 77.5024C105.923 77.5809 105.649 77.6995 105.408 77.8583C105.167 78.0171 104.973 78.2229 104.825 78.4755C104.677 78.7281 104.602 79.021 104.6 79.3544L104.565 86.5143L102.965 86.5064ZM121.445 84.9174L121.365 84.917C121.258 85.1698 121.123 85.4158 120.962 85.655C120.801 85.8809 120.6 86.0799 120.359 86.2521C120.131 86.4243 119.857 86.5629 119.537 86.668C119.216 86.7731 118.843 86.8246 118.416 86.8225C117.336 86.8172 116.471 86.4729 115.821 85.7897C115.171 85.0932 114.849 84.1182 114.855 82.8649L114.888 76.245L116.488 76.2529L116.457 82.5928C116.452 83.5395 116.655 84.2471 117.066 84.7158C117.477 85.1712 118.083 85.4008 118.883 85.4048C119.203 85.4064 119.517 85.3679 119.824 85.2894C120.131 85.2109 120.405 85.0923 120.645 84.9335C120.886 84.7746 121.08 84.5756 121.228 84.3363C121.376 84.0837 121.451 83.7841 121.453 83.4374L121.488 76.2775L123.088 76.2854L123.037 86.6053L121.437 86.5974L121.445 84.9174ZM130.988 86.8844C130.268 86.8809 129.615 86.751 129.03 86.4948C128.458 86.2386 127.966 85.8762 127.555 85.4075C127.158 84.9255 126.854 84.3574 126.644 83.703C126.434 83.0353 126.331 82.2881 126.335 81.4614C126.339 80.6481 126.449 79.9087 126.666 79.243C126.882 78.5774 127.192 78.0123 127.594 77.5476C128.01 77.0696 128.505 76.7054 129.079 76.4549C129.667 76.2045 130.321 76.081 131.041 76.0846C131.761 76.0881 132.407 76.218 132.979 76.4741C133.565 76.7303 134.056 77.0994 134.454 77.5814C134.865 78.0501 135.175 78.6183 135.386 79.286C135.596 79.9537 135.699 80.6942 135.695 81.5075C135.691 82.3342 135.58 83.0803 135.364 83.7459C135.147 84.3982 134.831 84.9633 134.415 85.4413C134.013 85.906 133.518 86.2635 132.93 86.514C132.355 86.7645 131.708 86.888 130.988 86.8844ZM130.995 85.5044C131.888 85.5088 132.609 85.2457 133.159 84.7151C133.708 84.1845 133.985 83.3591 133.991 82.2392L133.998 80.7592C134.004 79.6392 133.735 78.8112 133.19 78.2752C132.646 77.7391 131.928 77.4689 131.034 77.4645C130.141 77.4601 129.42 77.7233 128.871 78.2539C128.321 78.7845 128.044 79.6098 128.038 80.7298L128.031 82.2098C128.026 83.3298 128.295 84.1578 128.839 84.6938C129.383 85.2298 130.102 85.5 130.995 85.5044ZM145.43 85.0355L145.35 85.0351C145.242 85.2879 145.107 85.5339 144.946 85.7732C144.785 85.999 144.584 86.198 144.343 86.3702C144.115 86.5424 143.841 86.6811 143.521 86.7861C143.2 86.8912 142.827 86.9427 142.4 86.9406C141.32 86.9353 140.455 86.591 139.805 85.9078C139.155 85.2113 138.833 84.2364 138.84 82.983L138.872 76.3631L140.472 76.371L140.441 82.7109C140.436 83.6576 140.639 84.3653 141.05 84.834C141.462 85.2893 142.067 85.519 142.867 85.5229C143.187 85.5245 143.501 85.486 143.808 85.4075C144.115 85.3291 144.389 85.2104 144.629 85.0516C144.87 84.8928 145.065 84.6937 145.212 84.4544C145.36 84.2018 145.435 83.9022 145.437 83.5555L145.472 76.3956L147.072 76.4035L147.021 86.7234L145.421 86.7155L145.43 85.0355ZM155.092 87.0031C154.012 86.9978 153.08 86.8132 152.295 86.4494C151.523 86.0722 150.866 85.5756 150.322 84.9596L151.407 84.025C151.898 84.5474 152.436 84.95 153.021 85.2329C153.606 85.5158 154.312 85.6593 155.139 85.6634C155.939 85.6673 156.593 85.5305 157.101 85.253C157.622 84.9622 157.884 84.5102 157.887 83.8969C157.889 83.6302 157.837 83.4099 157.731 83.2361C157.638 83.049 157.506 82.9016 157.333 82.7941C157.16 82.6866 156.967 82.6057 156.754 82.5513C156.541 82.4836 156.315 82.4291 156.075 82.3879L154.456 82.1399C154.096 82.0848 153.703 82.0096 153.277 81.9141C152.864 81.8188 152.485 81.6702 152.139 81.4685C151.794 81.2535 151.502 80.972 151.264 80.6242C151.039 80.2764 150.927 79.8225 150.93 79.2625C150.933 78.7426 151.035 78.2964 151.237 77.924C151.452 77.5384 151.747 77.2199 152.122 76.9684C152.496 76.7036 152.937 76.5124 153.444 76.3949C153.952 76.2641 154.505 76.2001 155.105 76.2031C156.039 76.2077 156.845 76.3583 157.523 76.655C158.215 76.9517 158.806 77.3613 159.297 77.8837L158.252 78.8586C158.133 78.7113 157.98 78.5639 157.794 78.4163C157.622 78.2555 157.403 78.1144 157.137 77.9931C156.884 77.8585 156.584 77.7504 156.238 77.6687C155.892 77.587 155.492 77.545 155.039 77.5428C154.225 77.5388 153.598 77.6757 153.157 77.9535C152.729 78.2314 152.513 78.637 152.511 79.1703C152.509 79.437 152.555 79.6639 152.647 79.851C152.753 80.0249 152.892 80.1656 153.065 80.2731C153.238 80.3806 153.431 80.4682 153.644 80.5359C153.87 80.5904 154.097 80.6382 154.323 80.6793L155.942 80.9272C156.315 80.9824 156.708 81.0577 157.121 81.1531C157.534 81.2484 157.913 81.4036 158.259 81.6187C158.604 81.8204 158.89 82.0951 159.115 82.4429C159.353 82.7907 159.471 83.2447 159.468 83.8047C159.463 84.8313 159.059 85.6227 158.256 86.1787C157.467 86.7348 156.412 87.0096 155.092 87.0031ZM168.896 80.611C168.891 81.5844 168.773 82.5238 168.542 83.4293C168.324 84.3216 168.02 85.1535 167.63 85.9249C167.253 86.6964 166.809 87.3942 166.299 88.0183C165.79 88.6425 165.254 89.1599 164.692 89.5704L163.072 89.5625C163.647 89.1253 164.196 88.6147 164.719 88.0306C165.242 87.4598 165.699 86.8354 166.089 86.1573C166.492 85.4659 166.809 84.7275 167.04 83.9419C167.27 83.1431 167.388 82.317 167.392 81.4636L167.4 79.7437C167.404 78.8903 167.295 78.0698 167.072 77.282C166.85 76.4809 166.54 75.7394 166.143 75.0574C165.76 74.3622 165.31 73.7266 164.793 73.1507C164.276 72.5615 163.731 72.0455 163.16 71.6027L164.78 71.6107C165.338 72.0401 165.869 72.5694 166.372 73.1985C166.876 73.8143 167.313 74.5098 167.682 75.285C168.065 76.0602 168.361 76.9017 168.57 77.8094C168.792 78.7038 168.901 79.6377 168.896 80.611ZM178.957 87.0607C178.41 87.058 178.024 86.9427 177.798 86.715C177.586 86.4872 177.481 86.2001 177.482 85.8534L177.484 85.4934C177.486 85.1467 177.594 84.8606 177.808 84.635C178.036 84.4094 178.423 84.298 178.97 84.3007C179.517 84.3034 179.896 84.4186 180.108 84.6463C180.334 84.8741 180.446 85.1613 180.444 85.508L180.442 85.868C180.441 86.2146 180.326 86.5007 180.098 86.7263C179.884 86.9519 179.503 87.0634 178.957 87.0607ZM178.996 79.1408C178.449 79.1381 178.063 79.0228 177.837 78.7951C177.625 78.5673 177.52 78.2802 177.521 77.9335L177.523 77.5735C177.525 77.2268 177.633 76.9407 177.847 76.7151C178.075 76.4895 178.462 76.3781 179.009 76.3808C179.556 76.3835 179.935 76.4987 180.147 76.7264C180.373 76.9542 180.485 77.2414 180.483 77.5881L180.481 77.9481C180.48 78.2947 180.365 78.5808 180.137 78.8064C179.923 79.032 179.542 79.1435 178.996 79.1408ZM199.342 86.9811L199.41 73.0212L201.09 73.0295L201.029 85.5294L207.649 85.562L207.641 87.0219L199.342 86.9811ZM218.833 87.0771C218.207 87.074 217.761 86.9118 217.496 86.5905C217.231 86.2692 217.066 85.8683 217.002 85.388L216.902 85.3875C216.672 85.9864 216.303 86.4579 215.795 86.8021C215.3 87.133 214.632 87.2964 213.792 87.2922C212.712 87.2869 211.854 87.0027 211.217 86.4395C210.579 85.8764 210.263 85.1082 210.268 84.1348C210.273 83.1749 210.623 82.4366 211.319 81.92C212.028 81.4035 213.163 81.1491 214.723 81.1567L216.923 81.1676L216.928 80.1476C216.931 79.3876 216.721 78.8199 216.296 78.4445C215.871 78.0557 215.266 77.8594 214.479 77.8555C213.786 77.8521 213.218 77.9893 212.777 78.2671C212.335 78.5316 211.98 78.8965 211.711 79.3619L210.635 78.5566C210.77 78.2906 210.951 78.0315 211.179 77.7793C211.407 77.527 211.688 77.3084 212.022 77.1234C212.357 76.925 212.737 76.7736 213.165 76.669C213.592 76.5511 214.066 76.4935 214.586 76.496C215.799 76.502 216.757 76.8134 217.461 77.4302C218.178 78.0471 218.534 78.9022 218.528 79.9955L218.5 85.6754L219.94 85.6825L219.933 87.0825L218.833 87.0771ZM214.079 85.9536C214.492 85.9557 214.866 85.9108 215.2 85.8192C215.547 85.7142 215.847 85.5823 216.102 85.4236C216.356 85.2515 216.55 85.0525 216.685 84.8265C216.832 84.5872 216.907 84.3342 216.908 84.0675L216.917 82.3676L214.717 82.3567C213.757 82.352 213.056 82.4819 212.615 82.7464C212.173 83.0109 211.952 83.3965 211.949 83.9031L211.947 84.3231C211.944 84.8564 212.129 85.264 212.501 85.5459C212.886 85.8144 213.412 85.9504 214.079 85.9536ZM227.426 87.1194C226.639 87.1155 226.06 86.8927 225.689 86.4508C225.331 86.0091 225.154 85.4415 225.157 84.7482L225.19 78.1483L221.75 78.1313L221.756 76.7713L224.316 76.7839C224.663 76.7856 224.903 76.7202 225.037 76.5875C225.185 76.4415 225.259 76.1952 225.261 75.8486L225.274 73.1486L226.814 73.1562L226.796 76.7962L231.496 76.8193L231.49 78.1793L226.79 78.1561L226.752 85.756L231.452 85.7792L231.446 87.1392L227.426 87.1194ZM239.62 74.5793C239.153 74.577 238.827 74.482 238.641 74.2945C238.455 74.0935 238.363 73.8464 238.365 73.5531L238.366 73.2331C238.368 72.9398 238.462 72.7002 238.65 72.5145C238.837 72.3154 239.165 72.217 239.631 72.2193C240.098 72.2216 240.424 72.3232 240.61 72.5241C240.796 72.7117 240.888 72.9522 240.886 73.2455L240.885 73.5655C240.883 73.8588 240.789 74.105 240.601 74.3041C240.413 74.4899 240.086 74.5816 239.62 74.5793ZM235.044 85.7969L238.764 85.8152L238.802 78.2153L235.082 78.197L235.088 76.837L240.408 76.8632L240.364 85.8231L243.844 85.8402L243.838 87.2002L235.038 87.1569L235.044 85.7969ZM251.41 87.2375C250.623 87.2336 250.044 87.0108 249.673 86.5689C249.315 86.1272 249.138 85.5596 249.141 84.8663L249.174 78.2664L245.734 78.2494L245.741 76.8895L248.301 76.9021C248.647 76.9038 248.887 76.8383 249.021 76.7056C249.169 76.5597 249.243 76.3134 249.245 75.9667L249.258 73.2667L250.798 73.2743L250.78 76.9143L255.48 76.9374L255.474 78.2974L250.774 78.2743L250.736 85.8742L255.436 85.8973L255.43 87.2573L251.41 87.2375ZM265.35 85.6261L265.27 85.6257C265.162 85.8785 265.027 86.1246 264.866 86.3638C264.705 86.5896 264.504 86.7887 264.263 86.9608C264.036 87.133 263.762 87.2717 263.441 87.3768C263.121 87.4818 262.747 87.5333 262.321 87.5312C261.241 87.5259 260.376 87.1817 259.726 86.4984C259.076 85.8019 258.754 84.827 258.76 83.5737L258.793 76.9537L260.393 76.9616L260.361 83.3015C260.357 84.2482 260.56 84.9559 260.971 85.4246C261.382 85.8799 261.988 86.1096 262.788 86.1135C263.108 86.1151 263.421 86.0766 263.728 85.9982C264.035 85.9197 264.309 85.801 264.55 85.6422C264.791 85.4834 264.985 85.2843 265.133 85.0451C265.281 84.7925 265.356 84.4928 265.357 84.1462L265.392 76.9862L266.992 76.9941L266.942 87.314L265.342 87.3061L265.35 85.6261ZM277.402 85.6855L277.322 85.6851C276.649 86.9618 275.586 87.5966 274.133 87.5894C272.866 87.5832 271.875 87.105 271.16 86.1548C270.458 85.2046 270.111 83.8762 270.119 82.1696C270.128 80.4629 270.487 79.138 271.199 78.1949C271.923 77.2517 272.919 76.7833 274.186 76.7895C275.639 76.7967 276.696 77.4419 277.356 78.7252L277.436 78.7256L277.467 72.5657L279.067 72.5735L278.994 87.3734L277.394 87.3655L277.402 85.6855ZM274.76 86.1725C275.12 86.1743 275.46 86.1293 275.78 86.0375C276.101 85.9458 276.381 85.8138 276.622 85.6417C276.863 85.4562 277.051 85.2371 277.185 84.9844C277.333 84.7185 277.408 84.4122 277.41 84.0655L277.428 80.3456C277.43 79.9989 277.358 79.6985 277.213 79.4445C277.081 79.1772 276.895 78.9563 276.656 78.7817C276.417 78.5939 276.138 78.4525 275.818 78.3576C275.499 78.2627 275.159 78.2144 274.799 78.2126C273.865 78.208 273.137 78.4911 272.615 79.0618C272.105 79.6193 271.848 80.3647 271.844 81.2981L271.835 83.058C271.83 83.9914 272.08 84.7459 272.584 85.3218C273.101 85.8843 273.826 86.1679 274.76 86.1725ZM287.065 87.6531C286.318 87.6494 285.645 87.5194 285.046 87.2632C284.461 87.0069 283.956 86.6445 283.532 86.1757C283.121 85.6937 282.804 85.1254 282.58 84.471C282.357 83.8032 282.247 83.0627 282.251 82.2493C282.255 81.4227 282.372 80.6766 282.602 80.011C282.845 79.3456 283.175 78.7805 283.591 78.3159C284.006 77.8379 284.501 77.4737 285.076 77.2232C285.664 76.9727 286.311 76.8493 287.018 76.8527C287.711 76.8562 288.337 76.9859 288.896 77.242C289.468 77.4982 289.953 77.8539 290.351 78.3092C290.748 78.7511 291.053 79.2793 291.263 79.8937C291.473 80.5081 291.577 81.1819 291.573 81.9152L291.569 82.6752L283.929 82.6376L283.927 83.1176C283.925 83.5709 283.996 83.9913 284.141 84.3787C284.285 84.7661 284.49 85.1004 284.756 85.3817C285.034 85.6631 285.367 85.8847 285.752 86.0466C286.152 86.1953 286.591 86.2708 287.071 86.2731C287.765 86.2765 288.365 86.1195 288.874 85.802C289.382 85.4845 289.771 85.0464 290.04 84.4877L291.216 85.2935C290.906 85.9853 290.39 86.5561 289.668 87.0059C288.959 87.4424 288.091 87.6582 287.065 87.6531ZM287.011 78.1727C286.571 78.1706 286.164 78.2486 285.79 78.4067C285.416 78.5649 285.088 78.7833 284.807 79.0619C284.539 79.3406 284.324 79.6728 284.162 80.0587C284.013 80.4313 283.938 80.8443 283.936 81.2976L283.935 81.4376L289.855 81.4668L289.856 81.2468C289.858 80.7934 289.787 80.3798 289.642 80.0057C289.511 79.6317 289.319 79.3108 289.067 79.0429C288.828 78.7617 288.529 78.5469 288.17 78.3984C287.824 78.2501 287.438 78.1748 287.011 78.1727Z" fill="black"/>
<rect width="347.939" height="46.3115" transform="translate(0.228745 113) rotate(0.282181)" fill="#FAFF00"/>
<path d="M11.0397 143.294C9.78636 143.287 8.76082 143.056 7.96306 142.598C7.16537 142.128 6.5083 141.531 5.99185 140.809L7.21676 139.815C7.76008 140.497 8.33091 141.007 8.92926 141.343C9.54094 141.68 10.2668 141.85 11.1068 141.854C12.1201 141.859 12.8946 141.629 13.4302 141.165C13.9658 140.701 14.2357 140.049 14.2398 139.209C14.2432 138.529 14.0524 138.002 13.6676 137.626C13.2829 137.238 12.6109 136.961 11.6517 136.797L10.093 136.529C9.41358 136.406 8.84114 136.223 8.37566 135.98C7.92352 135.738 7.55827 135.45 7.27991 135.115C7.00162 134.767 6.80346 134.393 6.68544 133.992C6.56747 133.578 6.50957 133.151 6.51174 132.711C6.51805 131.431 6.9428 130.467 7.78601 129.817C8.62922 129.168 9.76414 128.847 11.1908 128.854C12.3108 128.86 13.2498 129.051 14.008 129.428C14.7795 129.805 15.3969 130.335 15.8602 131.017L14.6752 132.031C14.291 131.523 13.8264 131.107 13.2813 130.784C12.7362 130.462 12.0304 130.298 11.1637 130.294C10.217 130.289 9.4894 130.486 8.98077 130.883C8.47214 131.281 8.21586 131.88 8.21192 132.68C8.20883 133.306 8.39297 133.82 8.76433 134.222C9.14908 134.611 9.83436 134.894 10.8202 135.072L12.3189 135.34C12.9983 135.463 13.5707 135.646 14.0362 135.888C14.5017 136.131 14.8736 136.419 15.1519 136.754C15.4436 137.089 15.6485 137.463 15.7664 137.877C15.8844 138.291 15.9422 138.724 15.94 139.178C15.9336 140.471 15.502 141.482 14.6451 142.211C13.8015 142.941 12.5997 143.301 11.0397 143.294ZM23.7749 130.516C23.3083 130.514 22.9821 130.419 22.7963 130.231C22.6107 130.03 22.5185 129.783 22.52 129.49L22.5216 129.17C22.523 128.877 22.6175 128.637 22.8051 128.451C22.9928 128.252 23.3199 128.154 23.7866 128.156C24.2532 128.159 24.5794 128.26 24.7651 128.461C24.9508 128.649 25.043 128.889 25.0415 129.182L25.04 129.502C25.0385 129.796 24.944 130.042 24.7563 130.241C24.5687 130.427 24.2416 130.518 23.7749 130.516ZM19.1996 141.734L22.9196 141.752L22.957 134.152L19.2371 134.134L19.2438 132.774L24.5637 132.8L24.5196 141.76L27.9995 141.777L27.9928 143.137L19.1929 143.094L19.1996 141.734ZM30.765 143.151L30.7726 141.611L37.469 134.224L31.0291 134.192L31.0358 132.832L39.2157 132.872L39.2081 134.412L32.5117 141.799L39.3716 141.833L39.3649 143.193L30.765 143.151ZM47.2358 143.472C46.4891 143.468 45.8164 143.338 45.2177 143.082C44.6323 142.826 44.1274 142.463 43.703 141.994C43.2921 141.512 42.9749 140.944 42.7514 140.29C42.528 139.622 42.4183 138.881 42.4224 138.068C42.4264 137.241 42.5434 136.495 42.7734 135.83C43.0167 135.164 43.3461 134.599 43.7617 134.135C44.1774 133.657 44.6726 133.292 45.2471 133.042C45.8351 132.792 46.4823 132.668 47.189 132.672C47.8823 132.675 48.5084 132.805 49.0671 133.061C49.6392 133.317 50.1241 133.673 50.5219 134.128C50.9197 134.57 51.2238 135.098 51.4341 135.712C51.6444 136.327 51.7477 137.001 51.7441 137.734L51.7404 138.494L44.1005 138.456L44.0981 138.936C44.0959 139.39 44.1671 139.81 44.3119 140.197C44.4567 140.585 44.6617 140.919 44.927 141.2C45.2056 141.482 45.5378 141.703 45.9237 141.865C46.323 142.014 46.7626 142.09 47.2426 142.092C47.9359 142.095 48.5367 141.938 49.0449 141.621C49.5532 141.303 49.942 140.865 50.2114 140.306L51.3875 141.112C51.0774 141.804 50.5612 142.375 49.839 142.825C49.1302 143.261 48.2625 143.477 47.2358 143.472ZM47.1825 133.991C46.7425 133.989 46.3354 134.067 45.9613 134.225C45.5872 134.384 45.2595 134.602 44.9781 134.881C44.71 135.159 44.4951 135.492 44.3332 135.877C44.1847 136.25 44.1093 136.663 44.1071 137.116L44.1064 137.256L50.0263 137.286L50.0274 137.066C50.0296 136.612 49.9583 136.199 49.8135 135.824C49.682 135.45 49.4902 135.13 49.2382 134.862C48.9996 134.58 48.7007 134.366 48.3414 134.217C47.9955 134.069 47.6092 133.994 47.1825 133.991ZM69.1717 137.12C69.1765 136.147 69.2878 135.214 69.5055 134.321C69.7366 133.416 70.0408 132.577 70.4179 131.806C70.8084 131.034 71.2585 130.343 71.7681 129.733C72.2779 129.108 72.8138 128.584 73.3759 128.16L74.9959 128.168C74.4071 128.606 73.8512 129.116 73.3283 129.7C72.8188 130.271 72.3624 130.902 71.959 131.593C71.569 132.272 71.2587 133.01 71.0281 133.809C70.7975 134.594 70.6801 135.414 70.6759 136.267L70.6675 137.987C70.6633 138.841 70.7725 139.668 70.9953 140.469C71.218 141.257 71.5211 141.998 71.9043 142.693C72.301 143.375 72.7512 144.004 73.255 144.58C73.7721 145.169 74.3229 145.685 74.9074 146.128L73.2874 146.12C72.7295 145.704 72.1987 145.182 71.6951 144.552C71.1916 143.923 70.7484 143.221 70.3655 142.446C69.996 141.671 69.7001 140.836 69.4778 139.941C69.269 139.034 69.1669 138.093 69.1717 137.12ZM83.4919 143.65C81.7853 143.642 80.515 143.016 79.6811 141.772C78.8606 140.528 78.4561 138.739 78.4675 136.406C78.479 134.072 78.9012 132.288 79.7339 131.052C80.58 129.816 81.8564 129.202 83.563 129.211C84.203 129.214 84.7559 129.303 85.2217 129.479C85.6875 129.654 86.0864 129.89 86.4183 130.185C86.7502 130.48 87.0285 130.814 87.2533 131.189C87.4782 131.55 87.6764 131.918 87.8479 132.292L86.4047 132.945C86.2862 132.637 86.1476 132.35 85.9889 132.083C85.8303 131.802 85.6382 131.561 85.4125 131.36C85.2002 131.145 84.941 130.977 84.6349 130.856C84.3422 130.734 83.9825 130.673 83.5558 130.671C82.4492 130.665 81.6205 131.081 81.0697 131.918C80.5322 132.756 80.26 133.874 80.2531 135.274L80.2419 137.554C80.235 138.954 80.4962 140.076 81.0253 140.918C81.5679 141.761 82.3925 142.185 83.4991 142.19C83.9258 142.193 84.2861 142.134 84.58 142.016C84.8872 141.897 85.148 141.739 85.3623 141.54C85.5901 141.327 85.7846 141.088 85.9459 140.822C86.1073 140.543 86.2487 140.251 86.3702 139.945L87.8069 140.612C87.6317 140.997 87.4299 141.37 87.2014 141.729C86.973 142.088 86.6914 142.413 86.3566 142.705C86.0218 142.996 85.6207 143.228 85.1532 143.399C84.6857 143.57 84.1319 143.654 83.4919 143.65ZM95.024 143.707C94.304 143.704 93.6513 143.574 93.0659 143.318C92.4938 143.061 92.0022 142.699 91.5912 142.23C91.1936 141.748 90.8897 141.18 90.6796 140.526C90.4695 139.858 90.3665 139.111 90.3706 138.284C90.3746 137.471 90.4849 136.731 90.7016 136.066C90.9182 135.4 91.2276 134.835 91.6299 134.37C92.0456 133.892 92.5407 133.528 93.1153 133.278C93.7032 133.027 94.3572 132.904 95.0772 132.907C95.7972 132.911 96.4432 133.041 97.0153 133.297C97.6007 133.553 98.0922 133.922 98.4898 134.404C98.9009 134.873 99.2114 135.441 99.4214 136.109C99.6315 136.777 99.7345 137.517 99.7305 138.33C99.7264 139.157 99.6161 139.903 99.3995 140.569C99.1829 141.221 98.8668 141.786 98.4511 142.264C98.0488 142.729 97.5537 143.086 96.9658 143.337C96.3912 143.587 95.744 143.711 95.024 143.707ZM95.0308 142.327C95.9241 142.332 96.6454 142.069 97.1947 141.538C97.744 141.007 98.0214 140.182 98.0269 139.062L98.0342 137.582C98.0397 136.462 97.7704 135.634 97.2264 135.098C96.6824 134.562 95.9637 134.292 95.0704 134.287C94.177 134.283 93.4557 134.546 92.9064 135.077C92.3572 135.607 92.0798 136.433 92.0742 137.553L92.067 139.033C92.0614 140.153 92.3307 140.981 92.8747 141.517C93.4188 142.053 94.1374 142.323 95.0308 142.327ZM102.977 143.506L103.028 133.187L104.628 133.194L104.62 134.874L104.7 134.875C104.808 134.622 104.942 134.383 105.103 134.157C105.264 133.918 105.459 133.712 105.686 133.54C105.927 133.367 106.208 133.229 106.528 133.124C106.849 133.019 107.223 132.967 107.649 132.969C108.729 132.975 109.594 133.326 110.244 134.022C110.894 134.705 111.216 135.674 111.21 136.927L111.177 143.547L109.577 143.539L109.608 137.199C109.613 136.252 109.41 135.551 108.999 135.096C108.588 134.627 107.982 134.391 107.182 134.387C106.862 134.385 106.549 134.424 106.242 134.502C105.935 134.581 105.661 134.7 105.42 134.858C105.179 135.017 104.985 135.223 104.837 135.475C104.689 135.728 104.614 136.021 104.612 136.354L104.577 143.514L102.977 143.506ZM119.509 143.588C118.723 143.584 118.144 143.361 117.773 142.919C117.415 142.477 117.237 141.91 117.241 141.217L117.273 134.617L113.833 134.6L113.84 133.24L116.4 133.252C116.747 133.254 116.987 133.189 117.121 133.056C117.268 132.91 117.343 132.664 117.345 132.317L117.358 129.617L118.898 129.625L118.88 133.265L123.58 133.288L123.573 134.648L118.873 134.625L118.836 142.224L123.536 142.248L123.529 143.608L119.509 143.588ZM131.703 131.048C131.237 131.045 130.91 130.95 130.725 130.763C130.539 130.562 130.447 130.315 130.448 130.022L130.45 129.702C130.451 129.408 130.546 129.169 130.733 128.983C130.921 128.784 131.248 128.685 131.715 128.688C132.182 128.69 132.508 128.792 132.693 128.993C132.879 129.18 132.971 129.421 132.97 129.714L132.968 130.034C132.967 130.327 132.872 130.573 132.685 130.773C132.497 130.958 132.17 131.05 131.703 131.048ZM127.128 142.265L130.848 142.284L130.885 134.684L127.165 134.665L127.172 133.305L132.492 133.332L132.448 142.292L135.928 142.309L135.921 143.669L127.121 143.625L127.128 142.265ZM138.953 143.684L139.004 133.364L140.604 133.372L140.596 135.052L140.676 135.052C140.784 134.799 140.918 134.56 141.079 134.334C141.241 134.095 141.435 133.889 141.662 133.717C141.903 133.545 142.184 133.406 142.505 133.301C142.825 133.196 143.199 133.144 143.625 133.146C144.705 133.152 145.57 133.503 146.22 134.199C146.87 134.882 147.192 135.851 147.186 137.104L147.153 143.724L145.553 143.716L145.585 137.376C145.589 136.43 145.386 135.729 144.975 135.273C144.564 134.804 143.958 134.568 143.158 134.564C142.838 134.563 142.525 134.601 142.218 134.68C141.911 134.758 141.637 134.877 141.396 135.036C141.155 135.194 140.961 135.4 140.813 135.653C140.665 135.905 140.59 136.198 140.589 136.532L140.553 143.691L138.953 143.684ZM157.434 142.095L157.354 142.094C157.246 142.347 157.111 142.593 156.95 142.832C156.789 143.058 156.588 143.257 156.347 143.429C156.12 143.601 155.845 143.74 155.525 143.845C155.204 143.95 154.831 144.002 154.404 144C153.324 143.994 152.459 143.65 151.809 142.967C151.159 142.27 150.837 141.295 150.844 140.042L150.876 133.422L152.476 133.43L152.445 139.77C152.44 140.717 152.644 141.424 153.055 141.893C153.466 142.348 154.071 142.578 154.871 142.582C155.191 142.584 155.505 142.545 155.812 142.467C156.119 142.388 156.393 142.269 156.634 142.111C156.874 141.952 157.069 141.753 157.216 141.514C157.364 141.261 157.439 140.961 157.441 140.615L157.476 133.455L159.076 133.463L159.025 143.782L157.425 143.775L157.434 142.095ZM166.976 144.062C166.256 144.058 165.604 143.928 165.018 143.672C164.446 143.416 163.954 143.053 163.543 142.585C163.146 142.103 162.842 141.535 162.632 140.88C162.422 140.212 162.319 139.465 162.323 138.639C162.327 137.825 162.437 137.086 162.654 136.42C162.87 135.755 163.18 135.189 163.582 134.725C163.998 134.247 164.493 133.883 165.068 133.632C165.655 133.382 166.309 133.258 167.029 133.262C167.749 133.265 168.395 133.395 168.968 133.651C169.553 133.908 170.044 134.277 170.442 134.759C170.853 135.227 171.164 135.795 171.374 136.463C171.584 137.131 171.687 137.871 171.683 138.685C171.679 139.511 171.568 140.258 171.352 140.923C171.135 141.575 170.819 142.141 170.403 142.618C170.001 143.083 169.506 143.441 168.918 143.691C168.343 143.942 167.696 144.065 166.976 144.062ZM166.983 142.682C167.876 142.686 168.598 142.423 169.147 141.892C169.696 141.362 169.974 140.536 169.979 139.416L169.986 137.936C169.992 136.816 169.723 135.988 169.179 135.452C168.635 134.916 167.916 134.646 167.023 134.642C166.129 134.637 165.408 134.9 164.859 135.431C164.309 135.962 164.032 136.787 164.026 137.907L164.019 139.387C164.014 140.507 164.283 141.335 164.827 141.871C165.371 142.407 166.09 142.677 166.983 142.682ZM181.418 142.213L181.338 142.212C181.23 142.465 181.095 142.711 180.934 142.95C180.773 143.176 180.572 143.375 180.331 143.547C180.104 143.72 179.83 143.858 179.509 143.963C179.189 144.068 178.815 144.12 178.388 144.118C177.308 144.112 176.443 143.768 175.793 143.085C175.143 142.388 174.822 141.414 174.828 140.16L174.86 133.54L176.46 133.548L176.429 139.888C176.424 140.835 176.628 141.542 177.039 142.011C177.45 142.466 178.055 142.696 178.855 142.7C179.175 142.702 179.489 142.663 179.796 142.585C180.103 142.506 180.377 142.388 180.618 142.229C180.858 142.07 181.053 141.871 181.201 141.632C181.348 141.379 181.423 141.079 181.425 140.733L181.46 133.573L183.06 133.581L183.009 143.901L181.409 143.893L181.418 142.213ZM191.08 144.18C190 144.175 189.068 143.99 188.283 143.627C187.512 143.249 186.854 142.753 186.31 142.137L187.395 141.202C187.886 141.725 188.424 142.127 189.009 142.41C189.594 142.693 190.3 142.836 191.127 142.841C191.927 142.844 192.581 142.708 193.089 142.43C193.61 142.139 193.873 141.687 193.876 141.074C193.877 140.807 193.825 140.587 193.719 140.413C193.626 140.226 193.494 140.079 193.321 139.971C193.148 139.864 192.955 139.783 192.742 139.728C192.529 139.661 192.303 139.606 192.063 139.565L190.444 139.317C190.085 139.262 189.692 139.187 189.265 139.091C188.852 138.996 188.473 138.847 188.128 138.646C187.782 138.431 187.49 138.149 187.252 137.801C187.027 137.454 186.916 137 186.918 136.44C186.921 135.92 187.023 135.474 187.225 135.101C187.44 134.716 187.735 134.397 188.11 134.146C188.484 133.881 188.925 133.69 189.433 133.572C189.94 133.441 190.493 133.377 191.093 133.38C192.027 133.385 192.833 133.535 193.511 133.832C194.203 134.129 194.794 134.538 195.285 135.061L194.24 136.036C194.121 135.889 193.969 135.741 193.783 135.594C193.61 135.433 193.391 135.292 193.125 135.17C192.872 135.036 192.573 134.928 192.226 134.846C191.88 134.764 191.48 134.722 191.027 134.72C190.214 134.716 189.586 134.853 189.145 135.131C188.717 135.409 188.501 135.814 188.499 136.348C188.498 136.614 188.543 136.841 188.635 137.028C188.741 137.202 188.881 137.343 189.053 137.45C189.226 137.558 189.419 137.645 189.632 137.713C189.859 137.768 190.085 137.815 190.311 137.856L191.93 138.104C192.303 138.16 192.696 138.235 193.109 138.33C193.522 138.426 193.901 138.581 194.247 138.796C194.593 138.998 194.878 139.272 195.103 139.62C195.341 139.968 195.459 140.422 195.456 140.982C195.451 142.008 195.047 142.8 194.244 143.356C193.455 143.912 192.4 144.187 191.08 144.18ZM204.884 137.788C204.879 138.762 204.761 139.701 204.53 140.607C204.313 141.499 204.008 142.331 203.618 143.102C203.241 143.874 202.797 144.571 202.288 145.196C201.778 145.82 201.242 146.337 200.68 146.748L199.06 146.74C199.635 146.302 200.185 145.792 200.708 145.208C201.23 144.637 201.687 144.013 202.077 143.334C202.48 142.643 202.797 141.905 203.028 141.119C203.258 140.32 203.376 139.494 203.38 138.641L203.388 136.921C203.393 136.068 203.283 135.247 203.061 134.459C202.838 133.658 202.528 132.917 202.131 132.235C201.748 131.539 201.298 130.904 200.781 130.328C200.264 129.739 199.72 129.223 199.148 128.78L200.768 128.788C201.326 129.217 201.857 129.747 202.361 130.376C202.864 130.992 203.301 131.687 203.67 132.462C204.053 133.237 204.349 134.079 204.558 134.987C204.78 135.881 204.889 136.815 204.884 137.788ZM214.945 144.238C214.398 144.235 214.012 144.12 213.786 143.892C213.574 143.664 213.469 143.377 213.471 143.031L213.472 142.671C213.474 142.324 213.582 142.038 213.797 141.812C214.024 141.587 214.412 141.475 214.958 141.478C215.505 141.481 215.884 141.596 216.097 141.823C216.322 142.051 216.434 142.338 216.432 142.685L216.431 143.045C216.429 143.392 216.314 143.678 216.086 143.903C215.872 144.129 215.491 144.241 214.945 144.238ZM214.984 136.318C214.437 136.315 214.051 136.2 213.825 135.972C213.613 135.745 213.508 135.457 213.51 135.111L213.511 134.751C213.513 134.404 213.621 134.118 213.836 133.892C214.063 133.667 214.451 133.555 214.997 133.558C215.544 133.561 215.923 133.676 216.136 133.904C216.361 134.131 216.473 134.419 216.471 134.765L216.47 135.125C216.468 135.472 216.353 135.758 216.125 135.984C215.911 136.209 215.53 136.321 214.984 136.318ZM234.61 144.155L234.616 142.815L238.096 142.832L238.152 131.552L234.672 131.535L234.678 130.195L243.318 130.237L243.312 131.577L239.832 131.56L239.776 142.84L243.256 142.857L243.25 144.197L234.61 144.155ZM246.882 144.215L246.933 133.895L248.533 133.903L248.524 135.583L248.604 135.584C248.712 135.331 248.847 135.091 249.008 134.865C249.169 134.626 249.363 134.421 249.591 134.248C249.832 134.076 250.112 133.938 250.433 133.832C250.753 133.727 251.127 133.676 251.554 133.678C252.634 133.683 253.499 134.034 254.149 134.731C254.799 135.414 255.12 136.382 255.114 137.636L255.082 144.256L253.482 144.248L253.513 137.908C253.518 136.961 253.314 136.26 252.903 135.805C252.492 135.336 251.887 135.1 251.087 135.096C250.767 135.094 250.453 135.133 250.146 135.211C249.839 135.29 249.565 135.408 249.324 135.567C249.084 135.726 248.889 135.932 248.741 136.184C248.593 136.437 248.519 136.73 248.517 137.063L248.482 144.223L246.882 144.215ZM263.414 144.297C262.627 144.293 262.048 144.07 261.677 143.628C261.319 143.186 261.142 142.619 261.145 141.925L261.178 135.325L257.738 135.308L257.745 133.949L260.305 133.961C260.651 133.963 260.892 133.897 261.026 133.765C261.173 133.619 261.248 133.372 261.249 133.026L261.263 130.326L262.802 130.333L262.785 133.973L267.485 133.996L267.478 135.356L262.778 135.333L262.74 142.933L267.44 142.956L267.434 144.316L263.414 144.297ZM275.085 144.594C274.338 144.59 273.665 144.46 273.066 144.204C272.481 143.948 271.976 143.585 271.552 143.117C271.141 142.635 270.824 142.066 270.6 141.412C270.377 140.744 270.267 140.004 270.271 139.19C270.275 138.364 270.392 137.618 270.622 136.952C270.865 136.286 271.195 135.721 271.611 135.257C272.026 134.779 272.521 134.415 273.096 134.164C273.684 133.914 274.331 133.79 275.038 133.794C275.731 133.797 276.357 133.927 276.916 134.183C277.488 134.439 277.973 134.795 278.371 135.25C278.768 135.692 279.073 136.22 279.283 136.835C279.493 137.449 279.597 138.123 279.593 138.856L279.589 139.616L271.949 139.579L271.947 140.059C271.945 140.512 272.016 140.932 272.161 141.32C272.305 141.707 272.51 142.041 272.776 142.323C273.054 142.604 273.387 142.826 273.772 142.988C274.172 143.136 274.611 143.212 275.091 143.214C275.785 143.217 276.385 143.06 276.894 142.743C277.402 142.425 277.791 141.987 278.06 141.429L279.236 142.234C278.926 142.926 278.41 143.497 277.688 143.947C276.979 144.383 276.111 144.599 275.085 144.594ZM275.031 135.114C274.591 135.111 274.184 135.189 273.81 135.348C273.436 135.506 273.108 135.724 272.827 136.003C272.559 136.281 272.344 136.614 272.182 137C272.033 137.372 271.958 137.785 271.956 138.239L271.955 138.379L277.875 138.408L277.876 138.188C277.878 137.734 277.807 137.321 277.662 136.947C277.531 136.573 277.339 136.252 277.087 135.984C276.848 135.703 276.549 135.488 276.19 135.339C275.844 135.191 275.458 135.116 275.031 135.114ZM282.858 144.392L282.909 134.072L284.509 134.08L284.5 135.76L284.58 135.761C284.688 135.508 284.823 135.269 284.984 135.043C285.145 134.803 285.339 134.598 285.567 134.426C285.808 134.253 286.089 134.115 286.409 134.01C286.73 133.905 287.103 133.853 287.53 133.855C288.61 133.861 289.475 134.211 290.125 134.908C290.775 135.591 291.097 136.559 291.09 137.813L291.058 144.433L289.458 144.425L289.489 138.085C289.494 137.138 289.29 136.437 288.879 135.982C288.468 135.513 287.863 135.277 287.063 135.273C286.743 135.271 286.429 135.31 286.122 135.388C285.815 135.467 285.541 135.585 285.3 135.744C285.06 135.903 284.865 136.109 284.717 136.361C284.57 136.614 284.495 136.907 284.493 137.24L284.458 144.4L282.858 144.392ZM299.009 144.712C297.929 144.707 296.996 144.522 296.211 144.158C295.44 143.781 294.782 143.284 294.239 142.668L295.323 141.734C295.814 142.256 296.352 142.659 296.937 142.942C297.523 143.225 298.229 143.368 299.055 143.372C299.855 143.376 300.509 143.239 301.017 142.962C301.539 142.671 301.801 142.219 301.804 141.606C301.805 141.339 301.753 141.119 301.647 140.945C301.555 140.758 301.422 140.61 301.249 140.503C301.077 140.395 300.884 140.314 300.671 140.26C300.458 140.192 300.231 140.138 299.991 140.097L298.373 139.849C298.013 139.794 297.62 139.718 297.194 139.623C296.781 139.527 296.402 139.379 296.056 139.177C295.71 138.962 295.418 138.681 295.18 138.333C294.955 137.985 294.844 137.531 294.847 136.971C294.849 136.451 294.952 136.005 295.153 135.633C295.369 135.247 295.663 134.929 296.038 134.677C296.413 134.412 296.854 134.221 297.361 134.104C297.868 133.973 298.422 133.909 299.022 133.912C299.955 133.916 300.761 134.067 301.44 134.364C302.132 134.66 302.723 135.07 303.214 135.592L302.169 136.567C302.05 136.42 301.897 136.273 301.711 136.125C301.538 135.964 301.319 135.823 301.053 135.702C300.8 135.567 300.501 135.459 300.155 135.377C299.808 135.296 299.409 135.254 298.955 135.251C298.142 135.247 297.515 135.384 297.073 135.662C296.645 135.94 296.43 136.346 296.427 136.879C296.426 137.146 296.471 137.373 296.564 137.56C296.67 137.734 296.809 137.874 296.982 137.982C297.155 138.089 297.348 138.177 297.561 138.245C297.787 138.299 298.013 138.347 298.24 138.388L299.859 138.636C300.232 138.691 300.625 138.766 301.038 138.862C301.45 138.957 301.83 139.112 302.175 139.327C302.521 139.529 302.806 139.804 303.031 140.152C303.269 140.499 303.387 140.953 303.384 141.513C303.379 142.54 302.976 143.331 302.173 143.887C301.383 144.444 300.329 144.718 299.009 144.712ZM311.584 131.934C311.117 131.931 310.791 131.836 310.605 131.649C310.42 131.448 310.328 131.201 310.329 130.907L310.331 130.587C310.332 130.294 310.427 130.055 310.614 129.869C310.802 129.67 311.129 129.571 311.596 129.574C312.062 129.576 312.388 129.678 312.574 129.878C312.76 130.066 312.852 130.307 312.851 130.6L312.849 130.92C312.848 131.213 312.753 131.459 312.565 131.658C312.378 131.844 312.051 131.936 311.584 131.934ZM307.009 143.151L310.729 143.17L310.766 135.57L307.046 135.551L307.053 134.191L312.373 134.218L312.329 143.177L315.809 143.195L315.802 144.555L307.002 144.511L307.009 143.151ZM323.374 144.592C322.587 144.588 322.008 144.365 321.637 143.923C321.279 143.482 321.102 142.914 321.106 142.221L321.138 135.621L317.698 135.604L317.705 134.244L320.265 134.256C320.611 134.258 320.852 134.193 320.986 134.06C321.133 133.914 321.208 133.668 321.209 133.321L321.223 130.621L322.763 130.629L322.745 134.269L327.445 134.292L327.438 135.652L322.738 135.629L322.701 143.229L327.401 143.252L327.394 144.612L323.374 144.592ZM338.257 134.345L339.857 134.353L334.675 146.908C334.553 147.2 334.419 147.453 334.271 147.666C334.123 147.892 333.949 148.071 333.748 148.203C333.548 148.349 333.307 148.454 333.027 148.519C332.747 148.598 332.413 148.636 332.026 148.635L330.506 148.627L330.513 147.267L332.913 147.279L334.087 144.445L329.977 134.304L331.617 134.312L333.336 138.641L334.856 142.568L334.936 142.569L336.496 138.656L338.257 134.345Z" fill="black"/>
<rect width="304.975" height="68.4988" transform="translate(0.36644 174) rotate(0.282181)" fill="#FAFF00"/>
<path d="M6.21743 204.269C5.36411 204.265 4.63157 204.101 4.01982 203.778C3.40814 203.442 2.90381 202.966 2.50684 202.351C2.10986 201.736 1.82024 200.981 1.63798 200.087C1.45571 199.192 1.3674 198.172 1.37305 197.025C1.37863 195.892 1.47696 194.879 1.66802 193.987C1.85915 193.081 2.15622 192.322 2.55924 191.711C2.96225 191.1 3.47121 190.635 4.08611 190.319C4.70108 189.988 5.43523 189.825 6.28855 189.829C7.14187 189.834 7.87438 190.004 8.48606 190.34C9.09781 190.663 9.60217 191.132 9.99915 191.748C10.3961 192.363 10.6857 193.124 10.8679 194.032C11.0502 194.926 11.1385 195.94 11.1329 197.073C11.1273 198.22 11.0289 199.239 10.8379 200.132C10.6468 201.024 10.3498 201.776 9.94675 202.388C9.54373 202.999 9.03474 203.47 8.41977 203.8C7.80487 204.117 7.07076 204.273 6.21743 204.269ZM6.22462 202.809C6.78462 202.812 7.25847 202.708 7.64618 202.496C8.03396 202.271 8.3555 201.96 8.6108 201.561C8.8661 201.162 9.04846 200.683 9.15789 200.124C9.28071 199.551 9.34386 198.911 9.34734 198.205L9.35857 195.925C9.36198 195.231 9.3051 194.598 9.18793 194.024C9.08409 193.45 8.90649 192.962 8.65513 192.561C8.40377 192.16 8.08528 191.852 7.69967 191.636C7.31412 191.408 6.84135 191.292 6.28136 191.289C5.72137 191.287 5.24748 191.398 4.8597 191.622C4.47199 191.834 4.15048 192.139 3.89518 192.538C3.63988 192.936 3.45082 193.422 3.328 193.995C3.21851 194.568 3.16206 195.201 3.15864 195.894L3.14742 198.174C3.14394 198.881 3.19412 199.521 3.29796 200.095C3.4152 200.655 3.5995 201.136 3.85086 201.537C4.10222 201.939 4.42067 202.254 4.80622 202.482C5.19183 202.697 5.66463 202.806 6.22462 202.809ZM13.7574 202.706L16.7774 202.721L16.8148 195.121L13.7948 195.106L13.8015 193.746L18.4215 193.769L18.4087 196.369L18.5087 196.37C18.726 195.557 19.1291 194.926 19.718 194.476C20.3203 194.012 21.0814 193.782 22.0014 193.787L23.4414 193.794L23.4335 195.394L21.4936 195.384C20.5736 195.38 19.8256 195.643 19.2497 196.173C18.687 196.704 18.4036 197.402 18.3993 198.269L18.3774 202.729L22.3773 202.749L22.3706 204.109L13.7507 204.066L13.7574 202.706ZM30.9047 191.551C30.4381 191.548 30.1119 191.453 29.9261 191.266C29.7405 191.065 29.6483 190.818 29.6498 190.524L29.6514 190.204C29.6528 189.911 29.7473 189.672 29.9349 189.486C30.1226 189.287 30.4497 189.188 30.9164 189.191C31.383 189.193 31.7092 189.295 31.8949 189.495C32.0806 189.683 32.1728 189.924 32.1713 190.217L32.1698 190.537C32.1683 190.83 32.0738 191.076 31.8861 191.275C31.6985 191.461 31.3714 191.553 30.9047 191.551ZM26.3294 202.768L30.0494 202.787L30.0868 195.187L26.3669 195.168L26.3736 193.808L31.6935 193.835L31.6494 202.794L35.1293 202.812L35.1226 204.172L26.3227 204.128L26.3294 202.768ZM42.3736 204.447C41.6269 204.444 40.9542 204.314 40.3555 204.057C39.77 203.801 39.2652 203.439 38.8408 202.97C38.4298 202.488 38.1126 201.92 37.8892 201.265C37.6658 200.597 37.5561 199.857 37.5601 199.043C37.5642 198.217 37.6812 197.471 37.9111 196.805C38.1544 196.14 38.4839 195.575 38.8995 195.11C39.3152 194.632 39.8103 194.268 40.3849 194.017C40.9728 193.767 41.6201 193.643 42.3267 193.647C43.0201 193.65 43.6461 193.78 44.2049 194.036C44.7769 194.292 45.2619 194.648 45.6596 195.103C46.0574 195.545 46.3615 196.073 46.5718 196.688C46.7821 197.302 46.8855 197.976 46.8819 198.709L46.8781 199.469L39.2382 199.432L39.2359 199.912C39.2336 200.365 39.3049 200.785 39.4496 201.173C39.5944 201.56 39.7994 201.895 40.0647 202.176C40.3433 202.457 40.6756 202.679 41.0615 202.841C41.4607 202.989 41.9004 203.065 42.3804 203.067C43.0737 203.071 43.6745 202.914 44.1827 202.596C44.6909 202.279 45.0798 201.841 45.3492 201.282L46.5252 202.088C46.2152 202.779 45.699 203.35 44.9768 203.8C44.268 204.237 43.4002 204.452 42.3736 204.447ZM42.3202 194.967C41.8803 194.965 41.4732 195.043 41.0991 195.201C40.725 195.359 40.3972 195.577 40.1158 195.856C39.8478 196.135 39.6328 196.467 39.4709 196.853C39.3224 197.225 39.2471 197.638 39.2448 198.092L39.2441 198.232L45.1641 198.261L45.1651 198.041C45.1674 197.588 45.0961 197.174 44.9513 196.8C44.8198 196.426 44.628 196.105 44.376 195.837C44.1374 195.556 43.8384 195.341 43.4791 195.193C43.1332 195.044 42.7469 194.969 42.3202 194.967ZM50.1468 204.246L50.1977 193.926L51.7976 193.934L51.7894 195.614L51.8694 195.614C51.9773 195.361 52.1118 195.122 52.2729 194.896C52.4341 194.657 52.6284 194.451 52.856 194.279C53.0968 194.107 53.3775 193.968 53.698 193.863C54.0185 193.758 54.3921 193.706 54.8188 193.708C55.8988 193.714 56.7637 194.065 57.4136 194.761C58.0636 195.444 58.3855 196.413 58.3793 197.666L58.3467 204.286L56.7468 204.278L56.778 197.938C56.7826 196.991 56.5794 196.29 56.1683 195.835C55.7573 195.366 55.1518 195.13 54.3518 195.126C54.0318 195.125 53.7183 195.163 53.4112 195.241C53.1042 195.32 52.8302 195.439 52.5895 195.597C52.3487 195.756 52.1543 195.962 52.0064 196.215C51.8585 196.467 51.7837 196.76 51.7821 197.093L51.7468 204.253L50.1468 204.246ZM66.6788 204.327C65.8922 204.323 65.3133 204.1 64.9421 203.658C64.5843 203.217 64.4071 202.649 64.4105 201.956L64.443 195.356L61.003 195.339L61.0097 193.979L63.5697 193.992C63.9163 193.993 64.1567 193.928 64.2907 193.795C64.438 193.649 64.5126 193.403 64.5143 193.056L64.5276 190.356L66.0676 190.364L66.0497 194.004L70.7496 194.027L70.7429 195.387L66.043 195.364L66.0055 202.964L70.7055 202.987L70.6988 204.347L66.6788 204.327ZM82.0708 204.403C81.4442 204.4 80.9983 204.237 80.7332 203.916C80.4681 203.595 80.3034 203.194 80.2391 202.714L80.1391 202.713C79.9095 203.312 79.5405 203.784 79.0321 204.128C78.5372 204.459 77.8697 204.622 77.0297 204.618C75.9497 204.613 75.0911 204.328 74.4539 203.765C73.8166 203.202 73.5004 202.434 73.5052 201.461C73.5099 200.501 73.8602 199.762 74.5561 199.246C75.2653 198.729 76.3999 198.475 77.9599 198.482L80.1599 198.493L80.1649 197.473C80.1687 196.713 79.9581 196.146 79.5333 195.77C79.1085 195.381 78.5028 195.185 77.7162 195.181C77.0229 195.178 76.4555 195.315 76.0141 195.593C75.5728 195.857 75.2177 196.222 74.9487 196.688L73.8727 195.882C74.0073 195.616 74.1886 195.357 74.4165 195.105C74.6444 194.853 74.9255 194.634 75.2598 194.449C75.5941 194.251 75.9748 194.099 76.402 193.995C76.8293 193.877 77.3029 193.819 77.8229 193.822C79.0362 193.828 79.9947 194.139 80.6983 194.756C81.4153 195.373 81.7711 196.228 81.7657 197.321L81.7377 203.001L83.1777 203.008L83.1708 204.408L82.0708 204.403ZM77.3163 203.279C77.7296 203.281 78.1032 203.237 78.437 203.145C78.7842 203.04 79.0848 202.908 79.3389 202.749C79.5931 202.577 79.7874 202.378 79.9219 202.152C80.0697 201.913 80.1443 201.66 80.1456 201.393L80.154 199.693L77.954 199.682C76.994 199.678 76.2934 199.808 75.8521 200.072C75.4108 200.337 75.1889 200.722 75.1864 201.229L75.1843 201.649C75.1817 202.182 75.3663 202.59 75.7383 202.872C76.1236 203.14 76.6496 203.276 77.3163 203.279ZM90.6629 204.445C89.8762 204.441 89.2973 204.218 88.9262 203.777C88.5683 203.335 88.3911 202.767 88.3946 202.074L88.4271 195.474L84.9871 195.457L84.9938 194.097L87.5538 194.11C87.9004 194.111 88.1408 194.046 88.2747 193.913C88.4221 193.767 88.4967 193.521 88.4984 193.174L88.5117 190.474L90.0517 190.482L90.0337 194.122L94.7337 194.145L94.727 195.505L90.027 195.482L89.9896 203.082L94.6896 203.105L94.6829 204.465L90.6629 204.445ZM102.857 191.905C102.39 191.903 102.064 191.808 101.878 191.62C101.693 191.419 101.601 191.172 101.602 190.879L101.604 190.559C101.605 190.265 101.7 190.026 101.887 189.84C102.075 189.641 102.402 189.543 102.869 189.545C103.335 189.547 103.661 189.649 103.847 189.85C104.033 190.037 104.125 190.278 104.124 190.571L104.122 190.891C104.121 191.185 104.026 191.431 103.838 191.63C103.651 191.816 103.324 191.907 102.857 191.905ZM98.2817 203.123L102.002 203.141L102.039 195.541L98.3191 195.523L98.3258 194.163L103.646 194.189L103.602 203.149L107.082 203.166L107.075 204.526L98.275 204.483L98.2817 203.123ZM114.146 204.801C113.426 204.797 112.773 204.667 112.188 204.411C111.616 204.155 111.124 203.793 110.713 203.324C110.315 202.842 110.012 202.274 109.801 201.619C109.591 200.952 109.488 200.204 109.492 199.378C109.496 198.564 109.607 197.825 109.823 197.159C110.04 196.494 110.349 195.929 110.752 195.464C111.167 194.986 111.663 194.622 112.237 194.371C112.825 194.121 113.479 193.997 114.199 194.001C114.919 194.004 115.565 194.134 116.137 194.39C116.723 194.647 117.214 195.016 117.612 195.498C118.023 195.966 118.333 196.535 118.543 197.202C118.753 197.87 118.856 198.611 118.852 199.424C118.848 200.251 118.738 200.997 118.521 201.662C118.305 202.315 117.989 202.88 117.573 203.358C117.171 203.822 116.676 204.18 116.088 204.43C115.513 204.681 114.866 204.804 114.146 204.801ZM114.153 203.421C115.046 203.425 115.767 203.162 116.317 202.631C116.866 202.101 117.143 201.275 117.149 200.155L117.156 198.675C117.162 197.555 116.892 196.727 116.348 196.191C115.804 195.655 115.086 195.385 114.192 195.381C113.299 195.376 112.578 195.64 112.028 196.17C111.479 196.701 111.202 197.526 111.196 198.646L111.189 200.126C111.183 201.246 111.453 202.074 111.997 202.61C112.541 203.146 113.259 203.416 114.153 203.421ZM122.099 204.6L122.15 194.28L123.75 194.288L123.742 195.968L123.822 195.968C123.93 195.715 124.064 195.476 124.225 195.25C124.386 195.011 124.581 194.805 124.808 194.633C125.049 194.461 125.33 194.322 125.65 194.217C125.971 194.112 126.344 194.061 126.771 194.063C127.851 194.068 128.716 194.419 129.366 195.116C130.016 195.799 130.338 196.767 130.332 198.02L130.299 204.64L128.699 204.632L128.73 198.292C128.735 197.346 128.532 196.645 128.121 196.189C127.71 195.721 127.104 195.484 126.304 195.48C125.984 195.479 125.671 195.517 125.363 195.596C125.056 195.674 124.782 195.793 124.542 195.952C124.301 196.111 124.107 196.316 123.959 196.569C123.811 196.822 123.736 197.115 123.734 197.448L123.699 204.608L122.099 204.6ZM148.254 198.509C148.259 197.535 148.37 196.603 148.588 195.71C148.819 194.805 149.123 193.966 149.5 193.195C149.89 192.423 150.341 191.732 150.85 191.121C151.36 190.497 151.896 189.973 152.458 189.549L154.078 189.557C153.489 189.994 152.933 190.505 152.41 191.089C151.901 191.66 151.444 192.291 151.041 192.982C150.651 193.66 150.341 194.399 150.11 195.198C149.88 195.983 149.762 196.803 149.758 197.656L149.75 199.376C149.745 200.229 149.855 201.057 150.077 201.858C150.3 202.645 150.603 203.387 150.986 204.082C151.383 204.764 151.833 205.393 152.337 205.969C152.854 206.558 153.405 207.074 153.989 207.517L152.369 207.509C151.812 207.093 151.281 206.57 150.777 205.941C150.274 205.312 149.83 204.61 149.448 203.835C149.078 203.059 148.782 202.225 148.56 201.33C148.351 200.422 148.249 199.482 148.254 198.509ZM162.574 205.039C160.867 205.031 159.597 204.405 158.763 203.16C157.943 201.916 157.538 200.128 157.55 197.794C157.561 195.461 157.983 193.676 158.816 192.441C159.662 191.205 160.938 190.591 162.645 190.599C163.285 190.603 163.838 190.692 164.304 190.868C164.77 191.043 165.168 191.279 165.5 191.573C165.832 191.868 166.111 192.203 166.335 192.578C166.56 192.939 166.758 193.306 166.93 193.681L165.487 194.333C165.368 194.026 165.23 193.739 165.071 193.471C164.912 193.191 164.72 192.95 164.495 192.749C164.282 192.534 164.023 192.366 163.717 192.245C163.424 192.123 163.065 192.062 162.638 192.059C161.531 192.054 160.703 192.47 160.152 193.307C159.614 194.145 159.342 195.263 159.335 196.663L159.324 198.943C159.317 200.343 159.578 201.464 160.107 202.307C160.65 203.15 161.475 203.574 162.581 203.579C163.008 203.581 163.368 203.523 163.662 203.405C163.969 203.286 164.23 203.127 164.444 202.928C164.672 202.716 164.867 202.477 165.028 202.211C165.189 201.932 165.331 201.639 165.452 201.333L166.889 202C166.714 202.386 166.512 202.759 166.283 203.117C166.055 203.476 165.773 203.802 165.439 204.093C165.104 204.385 164.703 204.616 164.235 204.787C163.768 204.958 163.214 205.042 162.574 205.039ZM174.106 205.096C173.386 205.092 172.733 204.963 172.148 204.706C171.576 204.45 171.084 204.088 170.673 203.619C170.276 203.137 169.972 202.569 169.762 201.915C169.552 201.247 169.449 200.5 169.453 199.673C169.457 198.86 169.567 198.12 169.784 197.455C170 196.789 170.31 196.224 170.712 195.759C171.128 195.281 171.623 194.917 172.197 194.667C172.785 194.416 173.439 194.293 174.159 194.296C174.879 194.3 175.525 194.43 176.097 194.686C176.683 194.942 177.174 195.311 177.572 195.793C177.983 196.262 178.293 196.83 178.503 197.498C178.714 198.165 178.817 198.906 178.813 199.719C178.808 200.546 178.698 201.292 178.482 201.958C178.265 202.61 177.949 203.175 177.533 203.653C177.131 204.118 176.636 204.475 176.048 204.726C175.473 204.976 174.826 205.1 174.106 205.096ZM174.113 203.716C175.006 203.72 175.727 203.457 176.277 202.927C176.826 202.396 177.103 201.571 177.109 200.451L177.116 198.971C177.122 197.851 176.852 197.023 176.308 196.487C175.764 195.951 175.046 195.681 174.152 195.676C173.259 195.672 172.538 195.935 171.988 196.466C171.439 196.996 171.162 197.821 171.156 198.941L171.149 200.421C171.143 201.541 171.413 202.369 171.957 202.905C172.501 203.441 173.219 203.712 174.113 203.716ZM182.059 204.895L182.11 194.575L183.71 194.583L183.702 196.263L183.782 196.264C183.89 196.011 184.024 195.771 184.185 195.546C184.347 195.306 184.541 195.101 184.768 194.928C185.009 194.756 185.29 194.618 185.61 194.513C185.931 194.407 186.305 194.356 186.731 194.358C187.811 194.363 188.676 194.714 189.326 195.411C189.976 196.094 190.298 197.062 190.292 198.316L190.259 204.936L188.659 204.928L188.69 198.588C188.695 197.641 188.492 196.94 188.081 196.485C187.67 196.016 187.064 195.78 186.264 195.776C185.944 195.774 185.631 195.813 185.324 195.891C185.017 195.97 184.743 196.088 184.502 196.247C184.261 196.406 184.067 196.612 183.919 196.864C183.771 197.117 183.696 197.41 183.695 197.743L183.659 204.903L182.059 204.895ZM198.591 204.977C197.805 204.973 197.226 204.75 196.855 204.308C196.497 203.866 196.32 203.299 196.323 202.605L196.355 196.006L192.915 195.989L192.922 194.629L195.482 194.641C195.829 194.643 196.069 194.577 196.203 194.445C196.351 194.299 196.425 194.052 196.427 193.706L196.44 191.006L197.98 191.013L197.962 194.653L202.662 194.677L202.655 196.037L197.955 196.013L197.918 203.613L202.618 203.636L202.611 204.996L198.591 204.977ZM210.785 192.437C210.319 192.434 209.993 192.339 209.807 192.152C209.621 191.951 209.529 191.704 209.53 191.41L209.532 191.09C209.533 190.797 209.628 190.557 209.816 190.372C210.003 190.173 210.33 190.074 210.797 190.077C211.264 190.079 211.59 190.18 211.776 190.381C211.961 190.569 212.053 190.809 212.052 191.103L212.05 191.423C212.049 191.716 211.954 191.962 211.767 192.161C211.579 192.347 211.252 192.439 210.785 192.437ZM206.21 203.654L209.93 203.672L209.967 196.073L206.247 196.054L206.254 194.694L211.574 194.72L211.53 203.68L215.01 203.697L215.003 205.057L206.203 205.014L206.21 203.654ZM218.035 205.072L218.086 194.753L219.686 194.76L219.678 196.44L219.758 196.441C219.866 196.188 220 195.949 220.161 195.723C220.323 195.484 220.517 195.278 220.745 195.106C220.985 194.933 221.266 194.795 221.587 194.69C221.907 194.585 222.281 194.533 222.707 194.535C223.787 194.541 224.652 194.892 225.302 195.588C225.952 196.271 226.274 197.24 226.268 198.493L226.235 205.113L224.635 205.105L224.667 198.765C224.671 197.818 224.468 197.117 224.057 196.662C223.646 196.193 223.04 195.957 222.24 195.953C221.92 195.951 221.607 195.99 221.3 196.068C220.993 196.147 220.719 196.265 220.478 196.424C220.237 196.583 220.043 196.789 219.895 197.041C219.747 197.294 219.672 197.587 219.671 197.92L219.635 205.08L218.035 205.072ZM236.516 203.483L236.436 203.483C236.328 203.736 236.193 203.982 236.032 204.221C235.871 204.447 235.67 204.646 235.429 204.818C235.202 204.99 234.928 205.129 234.607 205.234C234.286 205.339 233.913 205.391 233.486 205.388C232.406 205.383 231.541 205.039 230.891 204.356C230.241 203.659 229.92 202.684 229.926 201.431L229.958 194.811L231.558 194.819L231.527 201.159C231.522 202.105 231.726 202.813 232.137 203.282C232.548 203.737 233.153 203.967 233.953 203.971C234.273 203.972 234.587 203.934 234.894 203.855C235.201 203.777 235.475 203.658 235.716 203.499C235.956 203.341 236.151 203.142 236.299 202.902C236.446 202.65 236.521 202.35 236.523 202.003L236.558 194.843L238.158 194.851L238.107 205.171L236.507 205.163L236.516 203.483ZM246.058 205.45C245.338 205.447 244.686 205.317 244.1 205.061C243.528 204.805 243.037 204.442 242.625 203.973C242.228 203.492 241.924 202.923 241.714 202.269C241.504 201.601 241.401 200.854 241.405 200.027C241.409 199.214 241.519 198.475 241.736 197.809C241.952 197.143 242.262 196.578 242.664 196.114C243.08 195.636 243.575 195.271 244.15 195.021C244.738 194.77 245.391 194.647 246.111 194.651C246.831 194.654 247.477 194.784 248.05 195.04C248.635 195.296 249.126 195.665 249.524 196.147C249.935 196.616 250.246 197.184 250.456 197.852C250.666 198.52 250.769 199.26 250.765 200.074C250.761 200.9 250.65 201.646 250.434 202.312C250.217 202.964 249.901 203.529 249.485 204.007C249.083 204.472 248.588 204.83 248 205.08C247.426 205.33 246.778 205.454 246.058 205.45ZM246.065 204.07C246.958 204.075 247.68 203.812 248.229 203.281C248.778 202.75 249.056 201.925 249.061 200.805L249.068 199.325C249.074 198.205 248.805 197.377 248.261 196.841C247.717 196.305 246.998 196.035 246.105 196.031C245.211 196.026 244.49 196.289 243.941 196.82C243.391 197.351 243.114 198.176 243.109 199.296L243.101 200.776C243.096 201.896 243.365 202.724 243.909 203.26C244.453 203.796 245.172 204.066 246.065 204.07ZM260.5 203.602L260.42 203.601C260.312 203.854 260.177 204.1 260.016 204.339C259.855 204.565 259.654 204.764 259.413 204.936C259.186 205.108 258.912 205.247 258.591 205.352C258.271 205.457 257.897 205.509 257.47 205.507C256.39 205.501 255.525 205.157 254.875 204.474C254.225 203.777 253.904 202.802 253.91 201.549L253.942 194.929L255.542 194.937L255.511 201.277C255.506 202.224 255.71 202.931 256.121 203.4C256.532 203.855 257.137 204.085 257.937 204.089C258.257 204.09 258.571 204.052 258.878 203.974C259.185 203.895 259.459 203.776 259.7 203.618C259.94 203.459 260.135 203.26 260.283 203.02C260.431 202.768 260.505 202.468 260.507 202.122L260.542 194.962L262.142 194.969L262.091 205.289L260.491 205.281L260.5 203.602ZM270.162 205.569C269.082 205.564 268.15 205.379 267.365 205.015C266.594 204.638 265.936 204.142 265.392 203.526L266.477 202.591C266.968 203.113 267.506 203.516 268.091 203.799C268.676 204.082 269.382 204.225 270.209 204.229C271.009 204.233 271.663 204.096 272.171 203.819C272.692 203.528 272.955 203.076 272.958 202.463C272.959 202.196 272.907 201.976 272.801 201.802C272.709 201.615 272.576 201.468 272.403 201.36C272.23 201.253 272.037 201.172 271.824 201.117C271.611 201.05 271.385 200.995 271.145 200.954L269.526 200.706C269.167 200.651 268.774 200.576 268.347 200.48C267.935 200.385 267.555 200.236 267.21 200.035C266.864 199.819 266.572 199.538 266.334 199.19C266.109 198.842 265.998 198.389 266 197.829C266.003 197.309 266.105 196.862 266.307 196.49C266.522 196.104 266.817 195.786 267.192 195.534C267.566 195.27 268.007 195.078 268.515 194.961C269.022 194.83 269.576 194.766 270.176 194.769C271.109 194.774 271.915 194.924 272.593 195.221C273.285 195.518 273.877 195.927 274.367 196.45L273.322 197.425C273.203 197.277 273.051 197.13 272.865 196.982C272.692 196.821 272.473 196.68 272.207 196.559C271.954 196.424 271.655 196.316 271.308 196.235C270.962 196.153 270.562 196.111 270.109 196.109C269.296 196.105 268.668 196.242 268.227 196.519C267.799 196.797 267.584 197.203 267.581 197.736C267.58 198.003 267.625 198.23 267.718 198.417C267.823 198.591 267.963 198.732 268.135 198.839C268.308 198.947 268.501 199.034 268.714 199.102C268.941 199.156 269.167 199.204 269.393 199.245L271.012 199.493C271.385 199.548 271.778 199.624 272.191 199.719C272.604 199.814 272.983 199.97 273.329 200.185C273.675 200.386 273.96 200.661 274.185 201.009C274.423 201.357 274.541 201.811 274.538 202.371C274.533 203.397 274.129 204.189 273.326 204.745C272.537 205.301 271.482 205.576 270.162 205.569ZM283.966 199.177C283.961 200.15 283.843 201.09 283.612 201.995C283.395 202.888 283.09 203.719 282.7 204.491C282.323 205.262 281.879 205.96 281.37 206.584C280.86 207.208 280.324 207.726 279.762 208.136L278.142 208.128C278.718 207.691 279.267 207.181 279.79 206.597C280.312 206.026 280.769 205.401 281.159 204.723C281.562 204.032 281.879 203.293 282.11 202.508C282.34 201.709 282.458 200.883 282.462 200.03L282.47 198.31C282.475 197.456 282.365 196.636 282.143 195.848C281.92 195.047 281.61 194.305 281.214 193.623C280.83 192.928 280.38 192.293 279.863 191.717C279.346 191.128 278.802 190.611 278.23 190.169L279.85 190.177C280.408 190.606 280.939 191.135 281.443 191.765C281.946 192.38 282.383 193.076 282.752 193.851C283.135 194.626 283.431 195.468 283.64 196.375C283.862 197.27 283.971 198.204 283.966 199.177ZM294.027 205.627C293.48 205.624 293.094 205.509 292.868 205.281C292.656 205.053 292.551 204.766 292.553 204.419L292.554 204.059C292.556 203.713 292.664 203.427 292.879 203.201C293.106 202.975 293.494 202.864 294.04 202.867C294.587 202.869 294.966 202.985 295.179 203.212C295.404 203.44 295.516 203.727 295.514 204.074L295.513 204.434C295.511 204.781 295.396 205.067 295.168 205.292C294.954 205.518 294.573 205.629 294.027 205.627ZM294.066 197.707C293.519 197.704 293.133 197.589 292.907 197.361C292.695 197.133 292.59 196.846 292.592 196.499L292.593 196.139C292.595 195.793 292.703 195.507 292.918 195.281C293.145 195.056 293.533 194.944 294.079 194.947C294.626 194.949 295.005 195.065 295.218 195.292C295.443 195.52 295.555 195.807 295.553 196.154L295.552 196.514C295.55 196.861 295.435 197.147 295.207 197.372C294.993 197.598 294.612 197.709 294.066 197.707ZM38.0355 216.226L41.9354 216.245C43.6421 216.254 44.9125 216.847 45.7467 218.024C46.5809 219.201 46.9924 220.944 46.981 223.25C46.9696 225.557 46.5411 227.295 45.6953 228.464C44.8495 229.633 43.5733 230.213 41.8667 230.205L37.9667 230.186L38.0355 216.226ZM41.7939 228.745C42.9139 228.75 43.7558 228.368 44.3196 227.597C44.8967 226.827 45.1888 225.735 45.1957 224.321L45.2063 222.161C45.2133 220.748 44.932 219.653 44.3625 218.877C43.8063 218.101 42.9682 217.71 41.8483 217.705L39.7083 217.694L39.6539 228.734L41.7939 228.745ZM54.7608 217.668C54.2941 217.666 53.9679 217.571 53.7822 217.384C53.5965 217.183 53.5044 216.936 53.5058 216.642L53.5074 216.322C53.5088 216.029 53.6034 215.789 53.7909 215.604C53.9786 215.405 54.3057 215.306 54.7724 215.308C55.2391 215.311 55.5652 215.412 55.7509 215.613C55.9367 215.801 56.0288 216.041 56.0274 216.335L56.0258 216.655C56.0243 216.948 55.9298 217.194 55.7421 217.393C55.5546 217.579 55.2274 217.671 54.7608 217.668ZM50.1855 228.886L53.9054 228.904L53.9429 221.304L50.2229 221.286L50.2296 219.926L55.5495 219.952L55.5054 228.912L58.9854 228.929L58.9787 230.289L50.1788 230.246L50.1855 228.886ZM61.5975 228.942L64.6175 228.957L64.6549 221.357L61.635 221.342L61.6417 219.982L66.2616 220.005L66.2488 222.605L66.3488 222.606C66.5661 221.793 66.9692 221.162 67.5581 220.711C68.1604 220.248 68.9216 220.018 69.8416 220.023L71.2815 220.03L71.2737 221.63L69.3337 221.62C68.4137 221.616 67.6657 221.879 67.0898 222.409C66.5271 222.94 66.2437 223.638 66.2394 224.505L66.2175 228.965L70.2174 228.985L70.2107 230.345L61.5908 230.302L61.5975 228.942ZM78.2216 230.624C77.475 230.62 76.8023 230.49 76.2035 230.234C75.6181 229.978 75.1132 229.615 74.6889 229.147C74.2779 228.665 73.9607 228.096 73.7372 227.442C73.5139 226.774 73.4042 226.034 73.4082 225.22C73.4123 224.394 73.5293 223.648 73.7592 222.982C74.0025 222.317 74.3319 221.752 74.7476 221.287C75.1633 220.809 75.6584 220.445 76.233 220.194C76.8209 219.944 77.4682 219.82 78.1748 219.824C78.8681 219.827 79.4942 219.957 80.0529 220.213C80.625 220.469 81.1099 220.825 81.5077 221.28C81.9055 221.722 82.2096 222.25 82.4199 222.865C82.6302 223.479 82.7336 224.153 82.7299 224.886L82.7262 225.646L75.0863 225.609L75.0839 226.089C75.0817 226.542 75.153 226.962 75.2977 227.35C75.4425 227.737 75.6475 228.071 75.9128 228.353C76.1914 228.634 76.5237 228.856 76.9095 229.018C77.3088 229.166 77.7484 229.242 78.2284 229.244C78.9218 229.248 79.5225 229.091 80.0308 228.773C80.539 228.456 80.9278 228.017 81.1973 227.459L82.3733 228.265C82.0632 228.956 81.5471 229.527 80.8249 229.977C80.116 230.413 79.2483 230.629 78.2216 230.624ZM78.1683 221.144C77.7283 221.142 77.3213 221.22 76.9472 221.378C76.573 221.536 76.2453 221.754 75.9639 222.033C75.6959 222.312 75.4809 222.644 75.319 223.03C75.1705 223.402 75.0951 223.815 75.0929 224.269L75.0922 224.409L81.0121 224.438L81.0132 224.218C81.0155 223.764 80.9442 223.351 80.7993 222.977C80.6678 222.603 80.4761 222.282 80.2241 222.014C79.9854 221.733 79.6865 221.518 79.3272 221.369C78.9813 221.221 78.595 221.146 78.1683 221.144ZM90.3937 230.684C89.647 230.68 88.981 230.55 88.3956 230.294C87.8236 230.025 87.3387 229.656 86.941 229.187C86.5433 228.718 86.2394 228.15 86.0294 227.483C85.8327 226.815 85.7363 226.074 85.7403 225.261C85.7443 224.448 85.8546 223.708 86.0713 223.043C86.2879 222.377 86.5973 221.812 86.9996 221.347C87.402 220.869 87.8904 220.505 88.465 220.254C89.0396 220.004 89.6935 219.88 90.4269 219.884C91.4268 219.889 92.2391 220.113 92.8636 220.556C93.4881 220.999 93.9452 221.575 94.2351 222.283L92.9518 222.957C92.7677 222.422 92.4564 222.007 92.0179 221.712C91.5927 221.417 91.0601 221.267 90.4201 221.264C89.9534 221.262 89.533 221.34 89.1589 221.498C88.7982 221.643 88.4905 221.855 88.2358 222.133C87.981 222.412 87.7861 222.744 87.6508 223.13C87.5289 223.517 87.4669 223.936 87.4646 224.39L87.456 226.15C87.4537 226.603 87.5117 227.023 87.6298 227.41C87.7612 227.798 87.9529 228.132 88.2048 228.413C88.4568 228.695 88.769 228.916 89.1416 229.078C89.5142 229.226 89.9405 229.302 90.4205 229.304C91.1138 229.308 91.6879 229.15 92.1428 228.833C92.5977 228.515 92.9599 228.077 93.2293 227.518L94.3654 228.304C94.0554 228.995 93.5725 229.566 92.917 230.016C92.2748 230.467 91.4337 230.689 90.3937 230.684ZM102.527 230.504C101.74 230.5 101.161 230.277 100.79 229.835C100.432 229.393 100.255 228.826 100.259 228.133L100.291 221.533L96.8511 221.516L96.8578 220.156L99.4178 220.168C99.7644 220.17 100.005 220.105 100.139 219.972C100.286 219.826 100.361 219.58 100.362 219.233L100.376 216.533L101.916 216.541L101.898 220.181L106.598 220.204L106.591 221.564L101.891 221.541L101.854 229.14L106.554 229.164L106.547 230.524L102.527 230.504ZM114.721 217.964C114.254 217.961 113.928 217.866 113.742 217.679C113.557 217.478 113.465 217.231 113.466 216.938L113.468 216.618C113.469 216.324 113.564 216.085 113.751 215.899C113.939 215.7 114.266 215.601 114.733 215.604C115.199 215.606 115.525 215.708 115.711 215.909C115.897 216.096 115.989 216.337 115.988 216.63L115.986 216.95C115.985 217.243 115.89 217.489 115.702 217.689C115.515 217.874 115.188 217.966 114.721 217.964ZM110.146 229.181L113.866 229.2L113.903 221.6L110.183 221.581L110.19 220.221L115.51 220.248L115.466 229.208L118.946 229.225L118.939 230.585L110.139 230.541L110.146 229.181ZM126.01 230.859C125.29 230.856 124.637 230.726 124.052 230.47C123.48 230.214 122.988 229.851 122.577 229.383C122.179 228.901 121.876 228.332 121.665 227.678C121.455 227.01 121.352 226.263 121.356 225.436C121.36 224.623 121.471 223.884 121.687 223.218C121.904 222.552 122.213 221.987 122.616 221.523C123.031 221.045 123.527 220.68 124.101 220.43C124.689 220.18 125.343 220.056 126.063 220.06C126.783 220.063 127.429 220.193 128.001 220.449C128.587 220.705 129.078 221.074 129.476 221.556C129.887 222.025 130.197 222.593 130.407 223.261C130.617 223.929 130.72 224.669 130.716 225.483C130.712 226.309 130.602 227.055 130.385 227.721C130.169 228.373 129.853 228.938 129.437 229.416C129.035 229.881 128.54 230.239 127.952 230.489C127.377 230.74 126.73 230.863 126.01 230.859ZM126.017 229.479C126.91 229.484 127.631 229.221 128.181 228.69C128.73 228.16 129.007 227.334 129.013 226.214L129.02 224.734C129.026 223.614 128.756 222.786 128.212 222.25C127.668 221.714 126.95 221.444 126.056 221.44C125.163 221.435 124.442 221.698 123.892 222.229C123.343 222.76 123.066 223.585 123.06 224.705L123.053 226.185C123.047 227.305 123.317 228.133 123.861 228.669C124.405 229.205 125.123 229.475 126.017 229.479ZM133.963 230.659L134.014 220.339L135.614 220.347L135.606 222.027L135.686 222.027C135.794 221.774 135.928 221.535 136.089 221.309C136.25 221.07 136.445 220.864 136.672 220.692C136.913 220.52 137.194 220.381 137.514 220.276C137.835 220.171 138.208 220.119 138.635 220.122C139.715 220.127 140.58 220.478 141.23 221.174C141.88 221.858 142.202 222.826 142.196 224.079L142.163 230.699L140.563 230.691L140.594 224.351C140.599 223.405 140.396 222.704 139.985 222.248C139.574 221.78 138.968 221.543 138.168 221.539C137.848 221.538 137.535 221.576 137.227 221.655C136.92 221.733 136.646 221.852 136.406 222.011C136.165 222.169 135.971 222.375 135.823 222.628C135.675 222.88 135.6 223.173 135.598 223.507L135.563 230.667L133.963 230.659Z" fill="black"/>
</g>
<defs>
<clipPath id="clip0_196_3">
<rect width="348" height="244" fill="white"/>
</clipPath>
</defs>
</svg>
