<svg width="389" height="430" viewBox="0 0 389 430" fill="none" xmlns="http://www.w3.org/2000/svg">
<g clip-path="url(#clip0_163_3)">
<rect width="389" height="430" fill="white"/>
<circle cx="84" cy="174" r="74" stroke="black" stroke-width="2"/>
<circle cx="84" cy="189" r="59" stroke="black" stroke-width="2"/>
<circle cx="84" cy="204" r="44" stroke="black" stroke-width="2"/>
<circle cx="84" cy="219" r="29" stroke="black" stroke-width="2"/>
<circle cx="84" cy="234" r="14" stroke="black" stroke-width="2"/>
<path d="M88.02 85.5H81.78L81.38 90.84H81.52C81.8667 90.3733 82.2533 90.0067 82.68 89.74C83.1067 89.46 83.6933 89.32 84.44 89.32C85.0533 89.32 85.6133 89.42 86.12 89.62C86.64 89.8067 87.0867 90.0867 87.46 90.46C87.8333 90.8333 88.1267 91.2867 88.34 91.82C88.5533 92.34 88.66 92.94 88.66 93.62C88.66 94.3 88.5533 94.9267 88.34 95.5C88.1267 96.06 87.8133 96.5467 87.4 96.96C86.9867 97.36 86.4867 97.6733 85.9 97.9C85.3133 98.1267 84.6467 98.24 83.9 98.24C83.3133 98.24 82.7867 98.1733 82.32 98.04C81.8667 97.9067 81.46 97.7267 81.1 97.5C80.7533 97.2733 80.4467 97.02 80.18 96.74C79.9133 96.46 79.6733 96.1667 79.46 95.86L80.72 94.9C80.9067 95.18 81.0933 95.4333 81.28 95.66C81.48 95.8867 81.7067 96.0867 81.96 96.26C82.2133 96.42 82.5 96.5467 82.82 96.64C83.14 96.7333 83.5133 96.78 83.94 96.78C84.9 96.78 85.6333 96.52 86.14 96C86.66 95.48 86.92 94.76 86.92 93.84V93.68C86.92 92.76 86.66 92.04 86.14 91.52C85.62 91 84.8733 90.74 83.9 90.74C83.2333 90.74 82.7133 90.8533 82.34 91.08C81.98 91.3067 81.6467 91.5867 81.34 91.92L79.92 91.72L80.42 84.04H88.02V85.5Z" fill="black"/>
<path d="M83.4 149.96C84.3733 149.96 85.1 149.747 85.58 149.32C86.0733 148.88 86.32 148.32 86.32 147.64V147.5C86.32 146.753 86.08 146.193 85.6 145.82C85.1333 145.447 84.52 145.26 83.76 145.26C83.0133 145.26 82.4067 145.427 81.94 145.76C81.4867 146.08 81.1133 146.507 80.82 147.04L79.56 146.08C79.7333 145.8 79.9467 145.527 80.2 145.26C80.4533 144.98 80.7467 144.733 81.08 144.52C81.4267 144.307 81.82 144.133 82.26 144C82.7133 143.867 83.2267 143.8 83.8 143.8C84.4 143.8 84.96 143.88 85.48 144.04C86 144.187 86.4533 144.413 86.84 144.72C87.2267 145.013 87.5267 145.38 87.74 145.82C87.9667 146.26 88.08 146.76 88.08 147.32C88.08 147.773 88.0067 148.18 87.86 148.54C87.7267 148.9 87.5333 149.213 87.28 149.48C87.04 149.747 86.7533 149.973 86.42 150.16C86.0867 150.347 85.7333 150.487 85.36 150.58V150.66C85.7467 150.74 86.12 150.873 86.48 151.06C86.84 151.233 87.16 151.467 87.44 151.76C87.72 152.04 87.94 152.387 88.1 152.8C88.2733 153.2 88.36 153.66 88.36 154.18C88.36 154.78 88.24 155.333 88 155.84C87.7733 156.333 87.4467 156.76 87.02 157.12C86.6067 157.467 86.1 157.74 85.5 157.94C84.9133 158.14 84.26 158.24 83.54 158.24C82.9267 158.24 82.38 158.173 81.9 158.04C81.4333 157.907 81.0133 157.727 80.64 157.5C80.28 157.273 79.96 157.02 79.68 156.74C79.4133 156.46 79.1733 156.167 78.96 155.86L80.22 154.9C80.4067 155.18 80.6 155.433 80.8 155.66C81 155.887 81.2267 156.087 81.48 156.26C81.7467 156.42 82.0467 156.547 82.38 156.64C82.7133 156.733 83.1 156.78 83.54 156.78C84.5267 156.78 85.28 156.553 85.8 156.1C86.3333 155.647 86.6 155 86.6 154.16V154C86.6 153.173 86.34 152.533 85.82 152.08C85.3133 151.627 84.5467 151.4 83.52 151.4H81.86V149.96H83.4Z" fill="black"/>
<path d="M88.74 188H79.42V186.28L84.08 182.08C84.76 181.467 85.32 180.84 85.76 180.2C86.2 179.547 86.42 178.86 86.42 178.14V177.9C86.42 177.06 86.2 176.413 85.76 175.96C85.32 175.493 84.6667 175.26 83.8 175.26C82.9467 175.26 82.2867 175.48 81.82 175.92C81.3667 176.347 81.0267 176.92 80.8 177.64L79.3 177.08C79.4333 176.667 79.6133 176.267 79.84 175.88C80.08 175.48 80.38 175.127 80.74 174.82C81.1 174.513 81.5333 174.267 82.04 174.08C82.56 173.893 83.16 173.8 83.84 173.8C84.5333 173.8 85.1467 173.9 85.68 174.1C86.2267 174.3 86.68 174.58 87.04 174.94C87.4133 175.3 87.6933 175.727 87.88 176.22C88.08 176.713 88.18 177.253 88.18 177.84C88.18 178.373 88.1 178.873 87.94 179.34C87.7933 179.807 87.58 180.253 87.3 180.68C87.0333 181.107 86.7067 181.527 86.32 181.94C85.9467 182.34 85.5267 182.74 85.06 183.14L81.16 186.54H88.74V188Z" fill="black"/>
<path d="M79.7 218V216.54H83.7V205.28H83.56L80.04 208.56L79.06 207.5L82.76 204.04H85.38V216.54H89.06V218H79.7Z" fill="black"/>
<path d="M85.56 128V125.26H78.68V123.78L84.72 114.04H87.16V123.88H89.24V125.26H87.16V128H85.56ZM80.18 123.88H85.56V115.34H85.48L80.18 123.88Z" fill="black"/>
<circle cx="306" cy="174" r="74" stroke="black" stroke-width="2"/>
<circle cx="306.082" cy="182.082" r="66.082" stroke="black" stroke-width="2"/>
<circle cx="306.095" cy="191.095" r="57.0947" stroke="black" stroke-width="2"/>
<circle cx="306.434" cy="201.434" r="46.4342" stroke="black" stroke-width="2"/>
<circle cx="305.541" cy="215.541" r="32.541" stroke="black" stroke-width="2"/>
<path d="M309.02 85.5H302.78L302.38 90.84H302.52C302.867 90.3733 303.253 90.0067 303.68 89.74C304.107 89.46 304.693 89.32 305.44 89.32C306.053 89.32 306.613 89.42 307.12 89.62C307.64 89.8067 308.087 90.0867 308.46 90.46C308.833 90.8333 309.127 91.2867 309.34 91.82C309.553 92.34 309.66 92.94 309.66 93.62C309.66 94.3 309.553 94.9267 309.34 95.5C309.127 96.06 308.813 96.5467 308.4 96.96C307.987 97.36 307.487 97.6733 306.9 97.9C306.313 98.1267 305.647 98.24 304.9 98.24C304.313 98.24 303.787 98.1733 303.32 98.04C302.867 97.9067 302.46 97.7267 302.1 97.5C301.753 97.2733 301.447 97.02 301.18 96.74C300.913 96.46 300.673 96.1667 300.46 95.86L301.72 94.9C301.907 95.18 302.093 95.4333 302.28 95.66C302.48 95.8867 302.707 96.0867 302.96 96.26C303.213 96.42 303.5 96.5467 303.82 96.64C304.14 96.7333 304.513 96.78 304.94 96.78C305.9 96.78 306.633 96.52 307.14 96C307.66 95.48 307.92 94.76 307.92 93.84V93.68C307.92 92.76 307.66 92.04 307.14 91.52C306.62 91 305.873 90.74 304.9 90.74C304.233 90.74 303.713 90.8533 303.34 91.08C302.98 91.3067 302.647 91.5867 302.34 91.92L300.92 91.72L301.42 84.04H309.02V85.5Z" fill="black"/>
<path d="M304.4 122.96C305.373 122.96 306.1 122.747 306.58 122.32C307.073 121.88 307.32 121.32 307.32 120.64V120.5C307.32 119.753 307.08 119.193 306.6 118.82C306.133 118.447 305.52 118.26 304.76 118.26C304.013 118.26 303.407 118.427 302.94 118.76C302.487 119.08 302.113 119.507 301.82 120.04L300.56 119.08C300.733 118.8 300.947 118.527 301.2 118.26C301.453 117.98 301.747 117.733 302.08 117.52C302.427 117.307 302.82 117.133 303.26 117C303.713 116.867 304.227 116.8 304.8 116.8C305.4 116.8 305.96 116.88 306.48 117.04C307 117.187 307.453 117.413 307.84 117.72C308.227 118.013 308.527 118.38 308.74 118.82C308.967 119.26 309.08 119.76 309.08 120.32C309.08 120.773 309.007 121.18 308.86 121.54C308.727 121.9 308.533 122.213 308.28 122.48C308.04 122.747 307.753 122.973 307.42 123.16C307.087 123.347 306.733 123.487 306.36 123.58V123.66C306.747 123.74 307.12 123.873 307.48 124.06C307.84 124.233 308.16 124.467 308.44 124.76C308.72 125.04 308.94 125.387 309.1 125.8C309.273 126.2 309.36 126.66 309.36 127.18C309.36 127.78 309.24 128.333 309 128.84C308.773 129.333 308.447 129.76 308.02 130.12C307.607 130.467 307.1 130.74 306.5 130.94C305.913 131.14 305.26 131.24 304.54 131.24C303.927 131.24 303.38 131.173 302.9 131.04C302.433 130.907 302.013 130.727 301.64 130.5C301.28 130.273 300.96 130.02 300.68 129.74C300.413 129.46 300.173 129.167 299.96 128.86L301.22 127.9C301.407 128.18 301.6 128.433 301.8 128.66C302 128.887 302.227 129.087 302.48 129.26C302.747 129.42 303.047 129.547 303.38 129.64C303.713 129.733 304.1 129.78 304.54 129.78C305.527 129.78 306.28 129.553 306.8 129.1C307.333 128.647 307.6 128 307.6 127.16V127C307.6 126.173 307.34 125.533 306.82 125.08C306.313 124.627 305.547 124.4 304.52 124.4H302.86V122.96H304.4Z" fill="black"/>
<path d="M309.74 153H300.42V151.28L305.08 147.08C305.76 146.467 306.32 145.84 306.76 145.2C307.2 144.547 307.42 143.86 307.42 143.14V142.9C307.42 142.06 307.2 141.413 306.76 140.96C306.32 140.493 305.667 140.26 304.8 140.26C303.947 140.26 303.287 140.48 302.82 140.92C302.367 141.347 302.027 141.92 301.8 142.64L300.3 142.08C300.433 141.667 300.613 141.267 300.84 140.88C301.08 140.48 301.38 140.127 301.74 139.82C302.1 139.513 302.533 139.267 303.04 139.08C303.56 138.893 304.16 138.8 304.84 138.8C305.533 138.8 306.147 138.9 306.68 139.1C307.227 139.3 307.68 139.58 308.04 139.94C308.413 140.3 308.693 140.727 308.88 141.22C309.08 141.713 309.18 142.253 309.18 142.84C309.18 143.373 309.1 143.873 308.94 144.34C308.793 144.807 308.58 145.253 308.3 145.68C308.033 146.107 307.707 146.527 307.32 146.94C306.947 147.34 306.527 147.74 306.06 148.14L302.16 151.54H309.74V153Z" fill="black"/>
<path d="M300.7 181V179.54H304.7V168.28H304.56L301.04 171.56L300.06 170.5L303.76 167.04H306.38V179.54H310.06V181H300.7Z" fill="black"/>
<path d="M306.56 114V111.26H299.68V109.78L305.72 100.04H308.16V109.88H310.24V111.26H308.16V114H306.56ZM301.18 109.88H306.56V101.34H306.48L301.18 109.88Z" fill="black"/>
<path d="M380 355C380 395.869 346.869 429 306 429C265.131 429 232 395.869 232 355C232 314.131 265.131 281 306 281C346.869 281 380 314.131 380 355Z" fill="#FAFF00" stroke="black" stroke-width="2"/>
<path d="M158 355C158 395.869 124.869 429 84 429C43.1309 429 10 395.869 10 355C10 314.131 43.1309 281 84 281C124.869 281 158 314.131 158 355Z" stroke="black" stroke-width="2"/>
<line x1="9" y1="354" x2="159" y2="354" stroke="black" stroke-width="2" stroke-dasharray="8 8"/>
<rect width="167.123" height="71.1778" transform="translate(0.350555) rotate(0.282181)" fill="#FAFF00"/>
<path d="M15.0577 31.0728L10.9865 17.0926L12.7665 17.1014L14.7121 24.091L16.1861 29.3783L16.2861 29.3788L17.812 24.1063L19.8264 17.1361L21.5464 17.1446L17.3377 31.084L15.0577 31.0728ZM32.0897 31.1567C31.463 31.1536 31.0171 30.9914 30.7521 30.6701C30.487 30.3488 30.3223 29.948 30.258 29.4677L30.158 29.4672C29.9284 30.066 29.5594 30.5376 29.051 30.8817C28.556 31.2126 27.8885 31.376 27.0486 31.3719C25.9686 31.3666 25.11 31.0823 24.4727 30.5192C23.8355 29.956 23.5193 29.1878 23.5241 28.2145C23.5288 27.2545 23.8791 26.5162 24.575 25.9996C25.2842 25.4831 26.4188 25.2287 27.9788 25.2364L30.1788 25.2472L30.1838 24.2272C30.1875 23.4672 29.977 22.8995 29.5522 22.5241C29.1274 22.1353 28.5217 21.939 27.735 21.9351C27.0417 21.9317 26.4744 22.0689 26.033 22.3468C25.5917 22.6113 25.2365 22.9762 24.9676 23.4415L23.8915 22.6362C24.0262 22.3702 24.2075 22.1111 24.4354 21.8589C24.6633 21.6067 24.9444 21.3881 25.2786 21.203C25.6129 21.0047 25.9937 20.8532 26.4209 20.7487C26.8481 20.6308 27.3217 20.5731 27.8417 20.5756C29.0551 20.5816 30.0135 20.893 30.7172 21.5098C31.4341 22.1267 31.7899 22.9818 31.7845 24.0751L31.7566 29.755L33.1966 29.7621L33.1897 31.1621L32.0897 31.1567ZM27.3352 30.0333C27.7485 30.0353 28.122 29.9905 28.4558 29.8988C28.803 29.7938 29.1037 29.662 29.3578 29.5032C29.612 29.3311 29.8063 29.1321 29.9407 28.9061C30.0886 28.6668 30.1632 28.4138 30.1645 28.1472L30.1728 26.4472L27.9729 26.4364C27.0129 26.4316 26.3122 26.5615 25.8709 26.826C25.4296 27.0905 25.2077 27.4761 25.2052 27.9828L25.2032 28.4027C25.2005 28.9361 25.3852 29.3437 25.7571 29.6255C26.1425 29.8941 26.6685 30.03 27.3352 30.0333ZM35.7885 29.8149L39.3885 29.8326L39.448 17.7528L35.848 17.735L35.8547 16.3751L41.0546 16.4007L40.9885 29.8405L44.5884 29.8582L44.5817 31.2182L35.7818 31.1749L35.7885 29.8149ZM54.6221 29.5876L54.5421 29.5873C54.4341 29.8401 54.2996 30.0861 54.1384 30.3253C53.9773 30.5512 53.7763 30.7502 53.5355 30.9223C53.3079 31.0945 53.0339 31.2332 52.7134 31.3383C52.3929 31.4434 52.0193 31.4949 51.5926 31.4928C50.5126 31.4874 49.6477 31.1432 48.9977 30.46C48.3478 29.7634 48.0259 28.7885 48.0321 27.5352L48.0647 20.9152L49.6647 20.9231L49.6334 27.2631C49.6288 28.2097 49.832 28.9174 50.243 29.3861C50.6541 29.8414 51.2596 30.0711 52.0596 30.075C52.3796 30.0766 52.6931 30.0382 53.0002 29.9597C53.3073 29.8812 53.5812 29.7625 53.822 29.6037C54.0627 29.4449 54.2571 29.2458 54.4049 29.0066C54.5528 28.754 54.6276 28.4543 54.6293 28.1077L54.6646 20.9478L56.2646 20.9556L56.2138 31.2755L54.6138 31.2676L54.6221 29.5876ZM64.3447 31.5556C63.598 31.5519 62.9253 31.4219 62.3266 31.1656C61.7411 30.9094 61.2363 30.5469 60.8119 30.0781C60.4009 29.5961 60.0837 29.0279 59.8603 28.3734C59.6369 27.7057 59.5272 26.9651 59.5312 26.1518C59.5353 25.3251 59.6523 24.579 59.8822 23.9135C60.1255 23.248 60.455 22.683 60.8706 22.2183C61.2863 21.7404 61.7814 21.3761 62.356 21.1256C62.9439 20.8752 63.5912 20.7517 64.2979 20.7552C64.9912 20.7586 65.6172 20.8884 66.176 21.1444C66.748 21.4006 67.233 21.7563 67.6307 22.2116C68.0286 22.6536 68.3326 23.1818 68.5429 23.7961C68.7532 24.4105 68.8566 25.0844 68.853 25.8177L68.8492 26.5777L61.2093 26.5401L61.207 27.02C61.2047 27.4734 61.276 27.8937 61.4208 28.2811C61.5655 28.6685 61.7705 29.0028 62.0358 29.2842C62.3144 29.5655 62.6467 29.7872 63.0326 29.9491C63.4318 30.0977 63.8715 30.1732 64.3515 30.1756C65.0448 30.179 65.6456 30.0219 66.1538 29.7044C66.662 29.3869 67.0509 28.9489 67.3203 28.3902L68.4963 29.196C68.1863 29.8878 67.6701 30.4586 66.9479 30.9084C66.2391 31.3449 65.3713 31.5606 64.3447 31.5556ZM64.2914 22.0752C63.8514 22.073 63.4443 22.151 63.0702 22.3092C62.6961 22.4673 62.3683 22.6857 62.0869 22.9643C61.8189 23.243 61.6039 23.5753 61.442 23.9612C61.2935 24.3338 61.2182 24.7467 61.2159 25.2001L61.2152 25.3401L67.1352 25.3692L67.1362 25.1492C67.1385 24.6959 67.0672 24.2822 66.9224 23.9082C66.7909 23.5342 66.5991 23.2132 66.3471 22.9453C66.1085 22.6641 65.8095 22.4493 65.4503 22.3009C65.1043 22.1525 64.718 22.0773 64.2914 22.0752ZM91.2844 24.4481L91.3061 20.0282L91.1461 20.0274L88.1708 27.1928L85.2662 19.9985L85.1062 19.9977L85.0844 24.4176L85.05 31.4175L83.51 31.4099L83.5787 17.4501L85.7387 17.4608L88.1683 23.6328L88.2883 23.6334L90.7787 17.4856L92.8586 17.4958L92.7899 31.4556L91.2499 31.4481L91.2844 24.4481ZM104.042 31.5111C103.415 31.508 102.969 31.3458 102.704 31.0245C102.439 30.7032 102.275 30.3023 102.21 29.822L102.11 29.8215C101.881 30.4204 101.512 30.8919 101.003 31.2361C100.508 31.567 99.8408 31.7304 99.0008 31.7262C97.9208 31.7209 97.0622 31.4367 96.425 30.8735C95.7877 30.3104 95.4715 29.5422 95.4763 28.5688C95.481 27.6089 95.8313 26.8706 96.5272 26.354C97.2365 25.8375 98.3711 25.5831 99.931 25.5907L102.131 25.6016L102.136 24.5816C102.14 23.8216 101.929 23.2539 101.504 22.8785C101.08 22.4897 100.474 22.2934 99.6873 22.2895C98.994 22.2861 98.4266 22.4233 97.9852 22.7011C97.5439 22.9656 97.1888 23.3305 96.9198 23.7959L95.8438 22.9906C95.9784 22.7246 96.1597 22.4655 96.3876 22.2133C96.6155 21.961 96.8966 21.7424 97.2309 21.5574C97.5652 21.359 97.9459 21.2076 98.3731 21.103C98.8004 20.9851 99.274 20.9275 99.794 20.93C101.007 20.936 101.966 21.2474 102.669 21.8642C103.386 22.4811 103.742 23.3362 103.737 24.4295L103.709 30.1094L105.149 30.1165L105.142 31.5165L104.042 31.5111ZM99.2874 30.3876C99.7007 30.3897 100.074 30.3448 100.408 30.2532C100.755 30.1482 101.056 30.0163 101.31 29.8576C101.564 29.6855 101.759 29.4865 101.893 29.2605C102.041 29.0212 102.115 28.7682 102.117 28.5015L102.125 26.8016L99.9251 26.7907C98.9651 26.786 98.2645 26.9159 97.8232 27.1804C97.3819 27.4449 97.16 27.8305 97.1575 28.3371L97.1554 28.7571C97.1528 29.2904 97.3374 29.698 97.7094 29.9799C98.0947 30.2484 98.6207 30.3844 99.2874 30.3876ZM108.085 21.2108L109.685 21.2187L109.677 22.8987L109.757 22.8991C110.43 21.6224 111.493 20.9876 112.946 20.9948C114.213 21.001 115.197 21.4792 115.899 22.4293C116.614 23.3796 116.968 24.708 116.959 26.4146C116.951 28.1213 116.584 29.4461 115.86 30.3893C115.148 31.3324 114.159 31.8009 112.893 31.7947C111.44 31.7875 110.383 31.1423 109.722 29.859L109.642 29.8586L109.614 35.5386L108.014 35.5307L108.085 21.2108ZM112.28 30.3716C113.213 30.3762 113.935 30.0998 114.444 29.5423C114.967 28.9715 115.23 28.2195 115.235 27.2861L115.244 25.5262C115.248 24.5928 114.992 23.8449 114.475 23.2823C113.971 22.7065 113.252 22.4163 112.319 22.4117C111.959 22.4099 111.619 22.4549 111.298 22.5467C110.978 22.6384 110.697 22.7771 110.456 22.9626C110.215 23.1347 110.021 23.3537 109.873 23.6197C109.738 23.8724 109.67 24.172 109.669 24.5187L109.65 28.2386C109.649 28.5853 109.714 28.8923 109.846 29.1596C109.991 29.4137 110.183 29.6346 110.423 29.8225C110.662 29.997 110.941 30.1317 111.261 30.2266C111.58 30.3215 111.92 30.3698 112.28 30.3716ZM120.077 21.2699L121.677 21.2778L121.669 22.9578L121.749 22.9582C122.422 21.6815 123.485 21.0467 124.938 21.0539C126.205 21.0601 127.189 21.5383 127.891 22.4884C128.606 23.4386 128.96 24.767 128.951 26.4737C128.943 28.1803 128.576 29.5052 127.852 30.4483C127.141 31.3915 126.152 31.86 124.885 31.8537C123.432 31.8466 122.375 31.2013 121.714 29.9181L121.634 29.9177L121.606 35.5976L120.006 35.5897L120.077 21.2699ZM124.272 30.4307C125.205 30.4353 125.927 30.1588 126.436 29.6013C126.959 29.0306 127.223 28.2785 127.227 27.3452L127.236 25.5852C127.24 24.6519 126.984 23.904 126.467 23.3414C125.963 22.7656 125.244 22.4754 124.311 22.4708C123.951 22.469 123.611 22.514 123.29 22.6058C122.97 22.6975 122.689 22.8361 122.448 23.0216C122.207 23.1938 122.013 23.4128 121.865 23.6787C121.731 23.9314 121.662 24.2311 121.661 24.5778L121.642 28.2977C121.641 28.6444 121.706 28.9514 121.838 29.2187C121.983 29.4727 122.175 29.6937 122.415 29.8815C122.654 30.056 122.933 30.1908 123.253 30.2857C123.572 30.3806 123.912 30.4289 124.272 30.4307ZM136.297 31.9099C135.55 31.9062 134.878 31.7763 134.279 31.52C133.693 31.2638 133.189 30.9013 132.764 30.4325C132.353 29.9505 132.036 29.3822 131.813 28.7278C131.589 28.06 131.479 27.3195 131.483 26.5062C131.488 25.6795 131.605 24.9334 131.834 24.2679C132.078 23.6024 132.407 23.0373 132.823 22.5727C133.239 22.0947 133.734 21.7305 134.308 21.48C134.896 21.2296 135.543 21.1061 136.25 21.1096C136.943 21.113 137.569 21.2427 138.128 21.4988C138.7 21.755 139.185 22.1107 139.583 22.566C139.981 23.008 140.285 23.5361 140.495 24.1505C140.705 24.7649 140.809 25.4387 140.805 26.1721L140.801 26.932L133.162 26.8944L133.159 27.3744C133.157 27.8277 133.228 28.2481 133.373 28.6355C133.518 29.0229 133.723 29.3572 133.988 29.6385C134.267 29.9199 134.599 30.1415 134.985 30.3034C135.384 30.4521 135.824 30.5276 136.304 30.5299C136.997 30.5334 137.598 30.3763 138.106 30.0588C138.614 29.7413 139.003 29.3032 139.273 28.7445L140.449 29.5503C140.139 30.2422 139.622 30.813 138.9 31.2627C138.191 31.6993 137.324 31.915 136.297 31.9099ZM136.244 22.4295C135.804 22.4274 135.397 22.5054 135.022 22.6635C134.648 22.8217 134.321 23.0401 134.039 23.3187C133.771 23.5974 133.556 23.9297 133.394 24.3155C133.246 24.6881 133.17 25.1011 133.168 25.5544L133.167 25.6944L139.087 25.7236L139.088 25.5036C139.091 25.0503 139.019 24.6366 138.875 24.2625C138.743 23.8885 138.551 23.5676 138.299 23.2997C138.061 23.0185 137.762 22.8037 137.403 22.6553C137.057 22.5069 136.67 22.4316 136.244 22.4295ZM150.618 30.0604L150.538 30.06C149.865 31.3367 148.802 31.9715 147.349 31.9644C146.082 31.9581 145.091 31.4799 144.376 30.5297C143.674 29.5796 143.327 28.2512 143.336 26.5445C143.344 24.8379 143.704 23.513 144.415 22.5698C145.14 21.6267 146.136 21.1582 147.402 21.1645C148.855 21.1716 149.912 21.8169 150.573 23.1001L150.653 23.1005L150.683 16.9406L152.283 16.9485L152.21 31.7483L150.61 31.7404L150.618 30.0604ZM147.976 30.5474C148.336 30.5492 148.676 30.5042 148.997 30.4125C149.317 30.3207 149.598 30.1887 149.839 30.0166C150.08 29.8311 150.267 29.612 150.402 29.3594C150.55 29.0934 150.625 28.7871 150.626 28.4405L150.645 24.7205C150.646 24.3738 150.575 24.0735 150.429 23.8194C150.297 23.5521 150.112 23.3312 149.872 23.1567C149.633 22.9688 149.354 22.8275 149.034 22.7325C148.715 22.6376 148.375 22.5893 148.015 22.5875C147.082 22.5829 146.354 22.866 145.831 23.4368C145.322 23.9943 145.065 24.7397 145.06 25.673L145.051 27.433C145.047 28.3663 145.296 29.1209 145.8 29.6967C146.317 30.2593 147.043 30.5428 147.976 30.5474ZM16.5696 57.0806C15.783 57.0767 15.2041 56.8538 14.8329 56.412C14.4751 55.9702 14.2979 55.4027 14.3013 54.7094L14.3338 48.1095L10.8938 48.0925L10.9005 46.7325L13.4605 46.7451C13.8072 46.7468 14.0475 46.6814 14.1815 46.5487C14.3289 46.4027 14.4034 46.1564 14.4051 45.8098L14.4184 43.1098L15.9584 43.1174L15.9405 46.7573L20.6404 46.7805L20.6337 48.1405L15.9338 48.1173L15.8963 55.7172L20.5963 55.7404L20.5896 57.1004L16.5696 57.0806ZM28.0605 57.3772C27.3405 57.3736 26.6878 57.2437 26.1024 56.9875C25.5303 56.7314 25.0388 56.3689 24.6277 55.9002C24.2301 55.4183 23.9262 54.8501 23.7161 54.1957C23.5061 53.528 23.4031 52.7808 23.4071 51.9542C23.4111 51.1409 23.5215 50.4014 23.7381 49.7358C23.9547 49.0702 24.2641 48.505 24.6664 48.0403C25.0821 47.5624 25.5773 47.1982 26.1518 46.9476C26.7397 46.6972 27.3937 46.5738 28.1137 46.5773C28.8337 46.5808 29.4797 46.7107 30.0518 46.9669C30.6372 47.2231 31.1287 47.5922 31.5264 48.0741C31.9374 48.5428 32.2479 49.111 32.458 49.7787C32.668 50.4464 32.771 51.187 32.767 52.0003C32.763 52.8269 32.6526 53.5731 32.436 54.2387C32.2195 54.891 31.9033 55.4561 31.4876 55.934C31.0853 56.3987 30.5902 56.7563 30.0023 57.0067C29.4278 57.2572 28.7805 57.3807 28.0605 57.3772ZM28.0673 55.9972C28.9606 56.0016 29.6819 55.7385 30.2312 55.2078C30.7805 54.6772 31.0579 53.8519 31.0634 52.7319L31.0707 51.2519C31.0762 50.1319 30.807 49.3039 30.2629 48.7679C29.7189 48.2319 29.0002 47.9617 28.1069 47.9573C27.2136 47.9529 26.4923 48.216 25.943 48.7466C25.3937 49.2773 25.1163 50.1026 25.1108 51.2226L25.1035 52.7025C25.098 53.8225 25.3672 54.6505 25.9113 55.1866C26.4553 55.7226 27.174 55.9928 28.0673 55.9972ZM49.5258 57.2429L47.8458 57.2346L47.9146 43.2748L52.9945 43.2998C54.2878 43.3062 55.2727 43.6644 55.9492 44.3744C56.6258 45.0844 56.9609 46.0727 56.9547 47.3394C56.9491 48.4727 56.6513 49.3779 56.0613 50.055C55.4713 50.7321 54.616 51.1212 53.4955 51.2224L57.0257 57.2798L55.1457 57.2706L51.7751 51.2939L49.5551 51.283L49.5258 57.2429ZM52.9221 49.8795C53.6288 49.883 54.1763 49.7124 54.5646 49.3676C54.9664 49.0096 55.1689 48.5039 55.1721 47.8506L55.1772 46.8106C55.1805 46.1573 54.9829 45.6563 54.5846 45.3077C54.1997 44.9458 53.654 44.7631 52.9473 44.7596L49.5873 44.743L49.5621 49.863L52.9221 49.8795ZM67.9378 57.3336C67.3111 57.3305 66.8652 57.1683 66.6001 56.847C66.335 56.5257 66.1703 56.1248 66.106 55.6445L66.006 55.644C65.7764 56.2429 65.4074 56.7144 64.8991 57.0586C64.4041 57.3895 63.7366 57.5529 62.8966 57.5487C61.8166 57.5434 60.958 57.2592 60.3208 56.696C59.6836 56.1329 59.3673 55.3647 59.3721 54.3913C59.3769 53.4314 59.7272 52.6931 60.4231 52.1765C61.1323 51.66 62.2669 51.4056 63.8269 51.4132L66.0268 51.4241L66.0319 50.4041C66.0356 49.6441 65.8251 49.0764 65.4002 48.701C64.9755 48.3122 64.3698 48.1159 63.5831 48.112C62.8898 48.1086 62.3224 48.2458 61.8811 48.5236C61.4398 48.7881 61.0846 49.153 60.8157 49.6184L59.7396 48.8131C59.8743 48.5471 60.0555 48.288 60.2834 48.0358C60.5114 47.7835 60.7924 47.5649 61.1267 47.3799C61.461 47.1815 61.8418 47.0301 62.2689 46.9255C62.6962 46.8076 63.1698 46.75 63.6898 46.7525C64.9031 46.7585 65.8616 47.0699 66.5652 47.6867C67.2822 48.3036 67.638 49.1587 67.6326 50.252L67.6046 55.9319L69.0446 55.939L69.0377 57.339L67.9378 57.3336ZM63.1832 56.2101C63.5966 56.2122 63.9701 56.1673 64.3039 56.0757C64.6511 55.9707 64.9517 55.8388 65.2059 55.6801C65.46 55.508 65.6544 55.309 65.7888 55.083C65.9367 54.8437 66.0112 54.5907 66.0125 54.324L66.0209 52.6241L63.8209 52.6132C62.861 52.6085 62.1603 52.7384 61.719 53.0029C61.2777 53.2674 61.0558 53.653 61.0533 54.1596L61.0512 54.5796C61.0486 55.1129 61.2333 55.5205 61.6052 55.8024C61.9906 56.0709 62.5166 56.2069 63.1832 56.2101ZM78.5381 55.7058L78.4581 55.7054C77.7851 56.9821 76.722 57.6168 75.2687 57.6097C74.002 57.6034 73.011 57.1252 72.2957 56.175C71.5937 55.2249 71.2469 53.8965 71.2553 52.1898C71.2637 50.4832 71.6236 49.1583 72.3349 48.2151C73.0596 47.272 74.0552 46.8036 75.3219 46.8098C76.7752 46.817 77.832 47.4622 78.4924 48.7454L78.5724 48.7458L78.6027 42.5859L80.2027 42.5938L80.1298 57.3936L78.5298 57.3857L78.5381 55.7058ZM75.8957 56.1927C76.2556 56.1945 76.5959 56.1495 76.9163 56.0578C77.2368 55.966 77.5174 55.8341 77.7583 55.6619C77.9992 55.4764 78.187 55.2573 78.3215 55.0047C78.4695 54.7387 78.5444 54.4324 78.5461 54.0858L78.5644 50.3658C78.5661 50.0192 78.4942 49.7188 78.3488 49.4647C78.2168 49.1974 78.0312 48.9765 77.7921 48.802C77.553 48.6141 77.2737 48.4728 76.9542 48.3779C76.6346 48.283 76.2949 48.2346 75.9349 48.2328C75.0015 48.2282 74.2735 48.5113 73.7506 49.0821C73.2412 49.6396 72.9842 50.385 72.9796 51.3183L72.971 53.0783C72.9664 54.0116 73.216 54.7662 73.7198 55.342C74.2371 55.9046 74.9623 56.1881 75.8957 56.1927ZM88.7239 44.8358C88.2573 44.8335 87.9311 44.7385 87.7453 44.551C87.5596 44.35 87.4675 44.1029 87.469 43.8096L87.4705 43.4896C87.472 43.1963 87.5665 42.9567 87.7541 42.771C87.9417 42.5719 88.2689 42.4735 88.7356 42.4758C89.2022 42.4781 89.5284 42.5797 89.7141 42.7806C89.8998 42.9682 89.992 43.2087 89.9905 43.502L89.9889 43.822C89.9875 44.1153 89.8929 44.3615 89.7053 44.5606C89.5177 44.7464 89.1906 44.8381 88.7239 44.8358ZM84.1486 56.0534L87.8686 56.0717L87.906 48.4718L84.1861 48.4535L84.1928 47.0935L89.5127 47.1197L89.4686 56.0796L92.9485 56.0967L92.9418 57.4567L84.1419 57.4134L84.1486 56.0534ZM102.462 55.8236L102.382 55.8232C102.274 56.076 102.14 56.322 101.979 56.5612C101.817 56.7871 101.616 56.9861 101.376 57.1582C101.148 57.3305 100.874 57.4691 100.554 57.5742C100.233 57.6793 99.8594 57.7308 99.4327 57.7287C98.3528 57.7234 97.4878 57.3791 96.8378 56.6959C96.1879 55.9993 95.866 55.0244 95.8722 53.7711L95.9048 47.1512L97.5048 47.1591L97.4736 53.499C97.4689 54.4456 97.6721 55.1533 98.0831 55.622C98.4942 56.0774 99.0997 56.307 99.8997 56.311C100.22 56.3125 100.533 56.2741 100.84 56.1956C101.147 56.1171 101.421 55.9985 101.662 55.8396C101.903 55.6808 102.097 55.4818 102.245 55.2425C102.393 54.9899 102.468 54.6903 102.469 54.3436L102.505 47.1837L104.105 47.1916L104.054 57.5114L102.454 57.5036L102.462 55.8236ZM112.125 57.7912C111.045 57.7859 110.112 57.6013 109.327 57.2374C108.556 56.8603 107.898 56.3637 107.355 55.7477L108.439 54.813C108.93 55.3354 109.468 55.7381 110.053 56.021C110.639 56.3039 111.345 56.4473 112.171 56.4514C112.971 56.4553 113.625 56.3186 114.133 56.0411C114.655 55.7503 114.917 55.2982 114.92 54.6849C114.921 54.4183 114.869 54.198 114.763 54.0241C114.671 53.837 114.538 53.6897 114.366 53.5822C114.193 53.4747 114 53.3937 113.787 53.3393C113.574 53.2716 113.347 53.2172 113.108 53.176L111.489 52.928C111.129 52.8729 110.736 52.7976 110.31 52.7022C109.897 52.6068 109.518 52.4583 109.172 52.2566C108.826 52.0415 108.534 51.7601 108.296 51.4123C108.071 51.0645 107.96 50.6106 107.963 50.0506C107.965 49.5306 108.068 49.0844 108.269 48.7121C108.485 48.3265 108.78 48.0079 109.154 47.7564C109.529 47.4916 109.97 47.3004 110.477 47.1829C110.984 47.0521 111.538 46.9882 112.138 46.9911C113.071 46.9957 113.877 47.1464 114.556 47.443C115.248 47.7398 115.839 48.1494 116.33 48.6718L115.285 49.6467C115.166 49.4994 115.013 49.352 114.827 49.2044C114.655 49.0435 114.435 48.9025 114.169 48.7811C113.917 48.6466 113.617 48.5384 113.271 48.4567C112.924 48.375 112.525 48.333 112.071 48.3308C111.258 48.3268 110.631 48.4637 110.189 48.7415C109.761 49.0194 109.546 49.4251 109.543 49.9584C109.542 50.225 109.588 50.4519 109.68 50.6391C109.786 50.8129 109.925 50.9536 110.098 51.0611C110.271 51.1686 110.464 51.2563 110.677 51.324C110.903 51.3784 111.129 51.4262 111.356 51.4673L112.975 51.7153C113.348 51.7705 113.741 51.8457 114.154 51.9411C114.566 52.0365 114.946 52.1917 115.291 52.4067C115.637 52.6084 115.922 52.8832 116.147 53.2309C116.386 53.5788 116.503 54.0327 116.501 54.5927C116.496 55.6194 116.092 56.4107 115.289 56.9668C114.499 57.5229 113.445 57.7977 112.125 57.7912Z" fill="black"/>
<rect width="167.123" height="71.1778" transform="translate(222.351) rotate(0.282181)" fill="#FAFF00"/>
<path d="M237.058 31.0728L232.987 17.0926L234.766 17.1014L236.712 24.091L238.186 29.3783L238.286 29.3788L239.812 24.1063L241.826 17.1361L243.546 17.1446L239.338 31.084L237.058 31.0728ZM254.09 31.1567C253.463 31.1536 253.017 30.9914 252.752 30.6701C252.487 30.3488 252.322 29.948 252.258 29.4677L252.158 29.4672C251.928 30.066 251.559 30.5376 251.051 30.8817C250.556 31.2126 249.889 31.376 249.049 31.3719C247.969 31.3666 247.11 31.0823 246.473 30.5192C245.835 29.956 245.519 29.1878 245.524 28.2145C245.529 27.2545 245.879 26.5162 246.575 25.9996C247.284 25.4831 248.419 25.2287 249.979 25.2364L252.179 25.2472L252.184 24.2272C252.188 23.4672 251.977 22.8995 251.552 22.5241C251.127 22.1353 250.522 21.939 249.735 21.9351C249.042 21.9317 248.474 22.0689 248.033 22.3468C247.592 22.6113 247.237 22.9762 246.968 23.4415L245.892 22.6362C246.026 22.3702 246.207 22.1111 246.435 21.8589C246.663 21.6067 246.944 21.3881 247.279 21.203C247.613 21.0047 247.994 20.8532 248.421 20.7487C248.848 20.6308 249.322 20.5731 249.842 20.5756C251.055 20.5816 252.014 20.893 252.717 21.5098C253.434 22.1267 253.79 22.9818 253.785 24.0751L253.757 29.755L255.197 29.7621L255.19 31.1621L254.09 31.1567ZM249.335 30.0333C249.748 30.0353 250.122 29.9905 250.456 29.8988C250.803 29.7938 251.104 29.662 251.358 29.5032C251.612 29.3311 251.806 29.1321 251.941 28.9061C252.089 28.6668 252.163 28.4138 252.164 28.1472L252.173 26.4472L249.973 26.4364C249.013 26.4316 248.312 26.5615 247.871 26.826C247.43 27.0905 247.208 27.4761 247.205 27.9828L247.203 28.4027C247.201 28.9361 247.385 29.3437 247.757 29.6255C248.142 29.8941 248.668 30.03 249.335 30.0333ZM257.789 29.8149L261.388 29.8326L261.448 17.7528L257.848 17.735L257.855 16.3751L263.055 16.4007L262.988 29.8405L266.588 29.8582L266.582 31.2182L257.782 31.1749L257.789 29.8149ZM276.622 29.5876L276.542 29.5873C276.434 29.8401 276.3 30.0861 276.138 30.3253C275.977 30.5512 275.776 30.7502 275.535 30.9223C275.308 31.0945 275.034 31.2332 274.713 31.3383C274.393 31.4434 274.019 31.4949 273.593 31.4928C272.513 31.4874 271.648 31.1432 270.998 30.46C270.348 29.7634 270.026 28.7885 270.032 27.5352L270.065 20.9152L271.665 20.9231L271.633 27.2631C271.629 28.2097 271.832 28.9174 272.243 29.3861C272.654 29.8414 273.26 30.0711 274.06 30.075C274.38 30.0766 274.693 30.0382 275 29.9597C275.307 29.8812 275.581 29.7625 275.822 29.6037C276.063 29.4449 276.257 29.2458 276.405 29.0066C276.553 28.754 276.628 28.4543 276.629 28.1077L276.665 20.9478L278.265 20.9556L278.214 31.2755L276.614 31.2676L276.622 29.5876ZM286.345 31.5556C285.598 31.5519 284.925 31.4219 284.327 31.1656C283.741 30.9094 283.236 30.5469 282.812 30.0781C282.401 29.5961 282.084 29.0279 281.86 28.3734C281.637 27.7057 281.527 26.9651 281.531 26.1518C281.535 25.3251 281.652 24.579 281.882 23.9135C282.126 23.248 282.455 22.683 282.871 22.2183C283.286 21.7404 283.781 21.3761 284.356 21.1256C284.944 20.8752 285.591 20.7517 286.298 20.7552C286.991 20.7586 287.617 20.8884 288.176 21.1444C288.748 21.4006 289.233 21.7563 289.631 22.2116C290.029 22.6536 290.333 23.1818 290.543 23.7961C290.753 24.4105 290.857 25.0844 290.853 25.8177L290.849 26.5777L283.209 26.5401L283.207 27.02C283.205 27.4734 283.276 27.8937 283.421 28.2811C283.566 28.6685 283.771 29.0028 284.036 29.2842C284.314 29.5655 284.647 29.7872 285.033 29.9491C285.432 30.0977 285.871 30.1732 286.351 30.1756C287.045 30.179 287.646 30.0219 288.154 29.7044C288.662 29.3869 289.051 28.9489 289.32 28.3902L290.496 29.196C290.186 29.8878 289.67 30.4586 288.948 30.9084C288.239 31.3449 287.371 31.5606 286.345 31.5556ZM286.291 22.0752C285.851 22.073 285.444 22.151 285.07 22.3092C284.696 22.4673 284.368 22.6857 284.087 22.9643C283.819 23.243 283.604 23.5753 283.442 23.9612C283.294 24.3338 283.218 24.7467 283.216 25.2001L283.215 25.3401L289.135 25.3692L289.136 25.1492C289.138 24.6959 289.067 24.2822 288.922 23.9082C288.791 23.5342 288.599 23.2132 288.347 22.9453C288.108 22.6641 287.81 22.4493 287.45 22.3009C287.104 22.1525 286.718 22.0773 286.291 22.0752ZM313.284 24.4481L313.306 20.0282L313.146 20.0274L310.171 27.1928L307.266 19.9985L307.106 19.9977L307.084 24.4176L307.05 31.4175L305.51 31.4099L305.579 17.4501L307.739 17.4608L310.168 23.6328L310.288 23.6334L312.779 17.4856L314.859 17.4958L314.79 31.4556L313.25 31.4481L313.284 24.4481ZM326.042 31.5111C325.415 31.508 324.969 31.3458 324.704 31.0245C324.439 30.7032 324.275 30.3023 324.21 29.822L324.11 29.8215C323.881 30.4204 323.512 30.8919 323.003 31.2361C322.508 31.567 321.841 31.7304 321.001 31.7262C319.921 31.7209 319.062 31.4367 318.425 30.8735C317.788 30.3104 317.472 29.5422 317.476 28.5688C317.481 27.6089 317.831 26.8706 318.527 26.354C319.236 25.8375 320.371 25.5831 321.931 25.5907L324.131 25.6016L324.136 24.5816C324.14 23.8216 323.929 23.2539 323.504 22.8785C323.08 22.4897 322.474 22.2934 321.687 22.2895C320.994 22.2861 320.427 22.4233 319.985 22.7011C319.544 22.9656 319.189 23.3305 318.92 23.7959L317.844 22.9906C317.978 22.7246 318.16 22.4655 318.388 22.2133C318.616 21.961 318.897 21.7424 319.231 21.5574C319.565 21.359 319.946 21.2076 320.373 21.103C320.8 20.9851 321.274 20.9275 321.794 20.93C323.007 20.936 323.966 21.2474 324.669 21.8642C325.386 22.4811 325.742 23.3362 325.737 24.4295L325.709 30.1094L327.149 30.1165L327.142 31.5165L326.042 31.5111ZM321.287 30.3876C321.701 30.3897 322.074 30.3448 322.408 30.2532C322.755 30.1482 323.056 30.0163 323.31 29.8576C323.564 29.6855 323.759 29.4865 323.893 29.2605C324.041 29.0212 324.115 28.7682 324.117 28.5015L324.125 26.8016L321.925 26.7907C320.965 26.786 320.264 26.9159 319.823 27.1804C319.382 27.4449 319.16 27.8305 319.157 28.3371L319.155 28.7571C319.153 29.2904 319.337 29.698 319.709 29.9799C320.095 30.2484 320.621 30.3844 321.287 30.3876ZM330.085 21.2108L331.685 21.2187L331.677 22.8987L331.757 22.8991C332.43 21.6224 333.493 20.9876 334.946 20.9948C336.213 21.001 337.197 21.4792 337.899 22.4293C338.614 23.3796 338.968 24.708 338.959 26.4146C338.951 28.1213 338.584 29.4461 337.86 30.3893C337.148 31.3324 336.159 31.8009 334.893 31.7947C333.44 31.7875 332.383 31.1423 331.722 29.859L331.642 29.8586L331.614 35.5386L330.014 35.5307L330.085 21.2108ZM334.28 30.3716C335.213 30.3762 335.935 30.0998 336.444 29.5423C336.967 28.9715 337.23 28.2195 337.235 27.2861L337.244 25.5262C337.248 24.5928 336.992 23.8449 336.475 23.2823C335.971 22.7065 335.252 22.4163 334.319 22.4117C333.959 22.4099 333.619 22.4549 333.298 22.5467C332.978 22.6384 332.697 22.7771 332.456 22.9626C332.215 23.1347 332.021 23.3537 331.873 23.6197C331.738 23.8724 331.67 24.172 331.669 24.5187L331.65 28.2386C331.649 28.5853 331.714 28.8923 331.846 29.1596C331.991 29.4137 332.183 29.6346 332.423 29.8225C332.662 29.997 332.941 30.1317 333.261 30.2266C333.58 30.3215 333.92 30.3698 334.28 30.3716ZM342.077 21.2699L343.677 21.2778L343.669 22.9578L343.749 22.9582C344.422 21.6815 345.485 21.0467 346.938 21.0539C348.205 21.0601 349.189 21.5383 349.891 22.4884C350.606 23.4386 350.96 24.767 350.951 26.4737C350.943 28.1803 350.576 29.5052 349.852 30.4483C349.141 31.3915 348.152 31.86 346.885 31.8537C345.432 31.8466 344.375 31.2013 343.714 29.9181L343.634 29.9177L343.606 35.5976L342.006 35.5897L342.077 21.2699ZM346.272 30.4307C347.205 30.4353 347.927 30.1588 348.436 29.6013C348.959 29.0306 349.223 28.2785 349.227 27.3452L349.236 25.5852C349.24 24.6519 348.984 23.904 348.467 23.3414C347.963 22.7656 347.244 22.4754 346.311 22.4708C345.951 22.469 345.611 22.514 345.29 22.6058C344.97 22.6975 344.689 22.8361 344.448 23.0216C344.207 23.1938 344.013 23.4128 343.865 23.6787C343.731 23.9314 343.662 24.2311 343.661 24.5778L343.642 28.2977C343.641 28.6444 343.706 28.9514 343.838 29.2187C343.983 29.4727 344.175 29.6937 344.415 29.8815C344.654 30.056 344.933 30.1908 345.253 30.2857C345.572 30.3806 345.912 30.4289 346.272 30.4307ZM358.297 31.9099C357.55 31.9062 356.878 31.7763 356.279 31.52C355.693 31.2638 355.189 30.9013 354.764 30.4325C354.353 29.9505 354.036 29.3822 353.813 28.7278C353.589 28.06 353.479 27.3195 353.483 26.5062C353.488 25.6795 353.605 24.9334 353.835 24.2679C354.078 23.6024 354.407 23.0373 354.823 22.5727C355.239 22.0947 355.734 21.7305 356.308 21.48C356.896 21.2296 357.543 21.1061 358.25 21.1096C358.943 21.113 359.569 21.2427 360.128 21.4988C360.7 21.755 361.185 22.1107 361.583 22.566C361.981 23.008 362.285 23.5361 362.495 24.1505C362.705 24.7649 362.809 25.4387 362.805 26.1721L362.801 26.932L355.162 26.8944L355.159 27.3744C355.157 27.8277 355.228 28.2481 355.373 28.6355C355.518 29.0229 355.723 29.3572 355.988 29.6385C356.267 29.9199 356.599 30.1415 356.985 30.3034C357.384 30.4521 357.824 30.5276 358.304 30.5299C358.997 30.5334 359.598 30.3763 360.106 30.0588C360.614 29.7413 361.003 29.3032 361.273 28.7445L362.449 29.5503C362.139 30.2422 361.622 30.813 360.9 31.2627C360.191 31.6993 359.324 31.915 358.297 31.9099ZM358.244 22.4295C357.804 22.4274 357.397 22.5054 357.022 22.6635C356.648 22.8217 356.321 23.0401 356.039 23.3187C355.771 23.5974 355.556 23.9297 355.394 24.3155C355.246 24.6881 355.17 25.1011 355.168 25.5544L355.167 25.6944L361.087 25.7236L361.089 25.5036C361.091 25.0503 361.019 24.6366 360.875 24.2625C360.743 23.8885 360.551 23.5676 360.299 23.2997C360.061 23.0185 359.762 22.8037 359.403 22.6553C359.057 22.5069 358.67 22.4316 358.244 22.4295ZM372.618 30.0604L372.538 30.06C371.865 31.3367 370.802 31.9715 369.349 31.9644C368.082 31.9581 367.091 31.4799 366.376 30.5297C365.674 29.5796 365.327 28.2512 365.336 26.5445C365.344 24.8379 365.704 23.513 366.415 22.5698C367.14 21.6267 368.136 21.1582 369.402 21.1645C370.855 21.1716 371.912 21.8169 372.573 23.1001L372.653 23.1005L372.683 16.9406L374.283 16.9485L374.21 31.7483L372.61 31.7404L372.618 30.0604ZM369.976 30.5474C370.336 30.5492 370.676 30.5042 370.997 30.4125C371.317 30.3207 371.598 30.1887 371.839 30.0166C372.08 29.8311 372.267 29.612 372.402 29.3594C372.55 29.0934 372.625 28.7871 372.626 28.4405L372.645 24.7205C372.646 24.3738 372.575 24.0735 372.429 23.8194C372.297 23.5521 372.112 23.3312 371.872 23.1567C371.633 22.9688 371.354 22.8275 371.034 22.7325C370.715 22.6376 370.375 22.5893 370.015 22.5875C369.082 22.5829 368.354 22.866 367.831 23.4368C367.322 23.9943 367.065 24.7397 367.06 25.673L367.051 27.433C367.047 28.3663 367.296 29.1209 367.8 29.6967C368.317 30.2593 369.043 30.5428 369.976 30.5474ZM238.57 57.0806C237.783 57.0767 237.204 56.8538 236.833 56.412C236.475 55.9702 236.298 55.4027 236.301 54.7094L236.334 48.1095L232.894 48.0925L232.901 46.7325L235.46 46.7451C235.807 46.7468 236.047 46.6814 236.181 46.5487C236.329 46.4027 236.403 46.1564 236.405 45.8098L236.418 43.1098L237.958 43.1174L237.94 46.7573L242.64 46.7805L242.634 48.1405L237.934 48.1173L237.896 55.7172L242.596 55.7404L242.59 57.1004L238.57 57.0806ZM250.06 57.3772C249.341 57.3736 248.688 57.2437 248.102 56.9875C247.53 56.7314 247.039 56.3689 246.628 55.9002C246.23 55.4183 245.926 54.8501 245.716 54.1957C245.506 53.528 245.403 52.7808 245.407 51.9542C245.411 51.1409 245.521 50.4014 245.738 49.7358C245.955 49.0702 246.264 48.505 246.666 48.0403C247.082 47.5624 247.577 47.1982 248.152 46.9476C248.74 46.6972 249.394 46.5738 250.114 46.5773C250.834 46.5808 251.48 46.7107 252.052 46.9669C252.637 47.2231 253.129 47.5922 253.526 48.0741C253.937 48.5428 254.248 49.111 254.458 49.7787C254.668 50.4464 254.771 51.187 254.767 52.0003C254.763 52.8269 254.653 53.5731 254.436 54.2387C254.219 54.891 253.903 55.4561 253.488 55.934C253.085 56.3987 252.59 56.7563 252.002 57.0067C251.428 57.2572 250.78 57.3807 250.06 57.3772ZM250.067 55.9972C250.961 56.0016 251.682 55.7385 252.231 55.2078C252.78 54.6772 253.058 53.8519 253.063 52.7319L253.071 51.2519C253.076 50.1319 252.807 49.3039 252.263 48.7679C251.719 48.2319 251 47.9617 250.107 47.9573C249.214 47.9529 248.492 48.216 247.943 48.7466C247.394 49.2773 247.116 50.1026 247.111 51.2226L247.103 52.7025C247.098 53.8225 247.367 54.6505 247.911 55.1866C248.455 55.7226 249.174 55.9928 250.067 55.9972ZM277.666 57.2731L276.505 53.2874L271.605 53.2632L270.406 57.2374L268.666 57.2288L273.015 43.29L275.235 43.301L279.446 57.2819L277.666 57.2731ZM274.186 45.0758L274.006 45.075L272.013 51.8052L276.113 51.8254L274.186 45.0758ZM281.585 55.9324L284.605 55.9473L284.642 48.3474L281.622 48.3325L281.629 46.9725L286.249 46.9953L286.236 49.5952L286.336 49.5957C286.553 48.7835 286.956 48.1521 287.545 47.7017C288.147 47.238 288.909 47.0084 289.829 47.0129L291.269 47.02L291.261 48.62L289.321 48.6104C288.401 48.6059 287.653 48.8689 287.077 49.3994C286.514 49.9299 286.231 50.6286 286.226 51.4952L286.205 55.9552L290.204 55.9749L290.198 57.3348L281.578 57.2924L281.585 55.9324ZM298.209 57.6143C297.462 57.6106 296.789 57.4806 296.191 57.2244C295.605 56.9681 295.1 56.6056 294.676 56.1369C294.265 55.6549 293.948 55.0866 293.724 54.4322C293.501 53.7644 293.391 53.0239 293.395 52.2105C293.399 51.3839 293.516 50.6378 293.746 49.9722C293.99 49.3068 294.319 48.7417 294.735 48.2771C295.15 47.7991 295.645 47.4349 296.22 47.1844C296.808 46.9339 297.455 46.8105 298.162 46.8139C298.855 46.8174 299.481 46.9471 300.04 47.2032C300.612 47.4593 301.097 47.8151 301.495 48.2704C301.893 48.7123 302.197 49.2405 302.407 49.8549C302.617 50.4693 302.721 51.1431 302.717 51.8764L302.713 52.6364L295.073 52.5988L295.071 53.0788C295.069 53.5321 295.14 53.9525 295.285 54.3399C295.43 54.7272 295.635 55.0616 295.9 55.3429C296.178 55.6243 296.511 55.8459 296.897 56.0078C297.296 56.1565 297.735 56.232 298.215 56.2343C298.909 56.2377 299.51 56.0807 300.018 55.7632C300.526 55.4457 300.915 55.0076 301.184 54.4489L302.36 55.2547C302.05 55.9465 301.534 56.5173 300.812 56.9671C300.103 57.4036 299.235 57.6194 298.209 57.6143ZM298.155 48.1339C297.715 48.1318 297.308 48.2098 296.934 48.3679C296.56 48.5261 296.232 48.7445 295.951 49.0231C295.683 49.3018 295.468 49.634 295.306 50.0199C295.158 50.3925 295.082 50.8055 295.08 51.2588L295.079 51.3988L300.999 51.428L301 51.208C301.002 50.7546 300.931 50.341 300.786 49.9669C300.655 49.5929 300.463 49.272 300.211 49.0041C299.972 48.7229 299.674 48.5081 299.314 48.3596C298.968 48.2113 298.582 48.136 298.155 48.1339ZM313.922 57.4517C313.295 57.4486 312.849 57.2864 312.584 56.9651C312.319 56.6438 312.154 56.243 312.09 55.7626L311.99 55.7622C311.761 56.361 311.392 56.8326 310.883 57.1767C310.388 57.5076 309.721 57.671 308.881 57.6669C307.801 57.6615 306.942 57.3773 306.305 56.8142C305.668 56.251 305.351 55.4828 305.356 54.5095C305.361 53.5495 305.711 52.8112 306.407 52.2946C307.116 51.7781 308.251 51.5237 309.811 51.5314L312.011 51.5422L312.016 50.5222C312.02 49.7622 311.809 49.1945 311.384 48.8191C310.96 48.4303 310.354 48.234 309.567 48.2301C308.874 48.2267 308.307 48.3639 307.865 48.6418C307.424 48.9062 307.069 49.2712 306.8 49.7365L305.724 48.9312C305.858 48.6652 306.04 48.4061 306.268 48.1539C306.495 47.9017 306.777 47.683 307.111 47.498C307.445 47.2997 307.826 47.1482 308.253 47.0436C308.68 46.9257 309.154 46.8681 309.674 46.8706C310.887 46.8766 311.846 47.188 312.549 47.8048C313.266 48.4217 313.622 49.2768 313.617 50.3701L313.589 56.05L315.029 56.0571L315.022 57.4571L313.922 57.4517ZM309.167 56.3283C309.581 56.3303 309.954 56.2855 310.288 56.1938C310.635 56.0888 310.936 55.957 311.19 55.7982C311.444 55.6261 311.638 55.4271 311.773 55.2011C311.921 54.9618 311.995 54.7088 311.997 54.4422L312.005 52.7422L309.805 52.7314C308.845 52.7266 308.144 52.8565 307.703 53.121C307.262 53.3855 307.04 53.7711 307.037 54.2777L307.035 54.6977C307.033 55.2311 307.217 55.6386 307.589 55.9205C307.975 56.189 308.501 56.325 309.167 56.3283Z" fill="black"/>
</g>
<defs>
<clipPath id="clip0_163_3">
<rect width="389" height="430" fill="white"/>
</clipPath>
</defs>
</svg>
